<svg width="24" height="24" viewBox="0 0 24 24" fill="none" xmlns="http://www.w3.org/2000/svg">
<path d="M8.57291 6.04531L6.43031 7.24517L7.63016 5.10256L6.43031 2.95996L8.57291 4.15982L10.7155 2.95996L9.51565 5.10256L10.7155 7.24517L8.57291 6.04531ZM18.8574 14.4443L21 13.2445L19.8001 15.3871L21 17.5297L18.8574 16.3298L16.7148 17.5297L17.9147 15.3871L16.7148 13.2445L18.8574 14.4443ZM21 2.95996L19.8001 5.10256L21 7.24517L18.8574 6.04531L16.7148 7.24517L17.9147 5.10256L16.7148 2.95996L18.8574 4.15982L21 2.95996ZM13.578 12.1989L15.6692 10.1077L13.8523 8.29076L11.7611 10.3819L13.578 12.1989ZM14.4608 7.49371L16.4663 9.49918C16.8005 9.81629 16.8005 10.3734 16.4663 10.7076L6.46459 20.7093C6.13034 21.0435 5.57327 21.0435 5.25616 20.7093L3.25068 18.7038C2.91644 18.3867 2.91644 17.8296 3.25068 17.4954L13.2524 7.49371C13.5866 7.15946 14.1437 7.15946 14.4608 7.49371Z" fill="#2D2B2C"/>
</svg>
