<svg preserveAspectRatio="none" overflow="visible" style="display: block;" width="38" height="37.8557" viewBox="0 0 38 37.8557" fill="none" xmlns="http://www.w3.org/2000/svg">
<g id="Group 14">
<path id="Subtract" d="M18.1515 3.18008C18.1515 4.08376 17.4163 4.80693 16.518 4.90516C9.06884 5.71979 3.27243 12.0326 3.27243 19.6996C3.27243 27.9194 9.93507 34.5828 18.1539 34.5828C25.8061 34.5828 32.1091 28.8066 32.9419 21.376C33.0423 20.4797 33.7648 19.7473 34.6667 19.7473C35.5723 19.7473 36.3134 20.4851 36.2303 21.3868C35.3793 30.6231 27.6112 37.8557 18.1539 37.8557C8.12778 37.8557 0 29.7269 0 19.6996C0 10.2243 7.25737 2.44436 16.5161 1.61633C17.4163 1.53581 18.1515 2.27622 18.1515 3.18008Z" fill="url(#paint0_linear_0_837)"/>
<path id="Vector" d="M29.2899 17.0015C29.3788 16.6103 29.6327 15.7646 29.8358 15.1335C30.9786 11.6878 32.5276 10.3625 36.7303 9.23914L38 8.91098L37.4286 8.75951C32.007 7.33325 30.6104 5.98272 29.328 0.934013L29.0867 1.94742e-06L28.7947 1.06023C27.525 5.80602 26.1029 7.28277 21.6209 8.5197C20.7829 8.7469 20.2115 8.94884 20.3512 8.97409C21.2654 9.12555 23.462 9.85761 24.4523 10.3372C26.6489 11.3848 27.652 12.7859 28.6042 16.0675C28.8582 16.9258 29.074 17.6452 29.0994 17.6705C29.1121 17.6957 29.201 17.3928 29.2899 17.0015Z" fill="url(#paint1_linear_0_837)"/>
</g>
<defs>
<linearGradient id="paint0_linear_0_837" x1="18.1538" y1="1.54343" x2="18.1538" y2="37.8557" gradientUnits="userSpaceOnUse">
<stop stop-color="#FDFD80"/>
<stop offset="1" stop-color="#E6B142"/>
</linearGradient>
<linearGradient id="paint1_linear_0_837" x1="29.1651" y1="1.9303e-06" x2="29.1651" y2="17.672" gradientUnits="userSpaceOnUse">
<stop stop-color="#FDFD80"/>
<stop offset="1" stop-color="#E6B142"/>
</linearGradient>
</defs>
</svg>
