<svg width="1317" height="218" viewBox="0 0 1317 218" fill="none" xmlns="http://www.w3.org/2000/svg">
<g filter="url(#filter0_d_10101_186)">
<path d="M1294.12 135.104V74.9688H1314.38V52.7461H1294.12V23.6592H1262.75V52.7461H1245.75V74.9688H1262.75V138.263L1262.75 139.034C1262.84 146.958 1264.21 153.382 1266.89 158.307C1269.65 163.39 1273.57 167.095 1278.65 169.419C1283.49 171.53 1289.09 172.651 1295.45 172.783L1296.74 172.796C1300.51 172.796 1303.96 172.542 1307.09 172.033C1309.82 171.588 1312.38 171.005 1314.78 170.282L1315.8 169.964L1315.69 146.868C1314.6 147.086 1313.26 147.305 1311.66 147.522C1310.14 147.668 1308.39 147.74 1306.43 147.74V146.74C1308.36 146.74 1310.07 146.668 1311.55 146.527C1313.13 146.312 1314.44 146.099 1315.5 145.888L1316.69 145.65L1316.8 170.689L1316.11 170.915C1313.37 171.804 1310.41 172.505 1307.25 173.021C1304.06 173.539 1300.56 173.796 1296.74 173.796C1289.73 173.796 1283.56 172.652 1278.25 170.335L1278.25 170.332L1278.24 170.328C1272.95 167.911 1268.87 164.051 1266.01 158.784C1263.14 153.504 1261.75 146.641 1261.75 138.263V75.9688H1244.75V51.7461H1261.75V22.6592H1295.12V51.7461H1315.38V75.9688H1295.12V135.104C1295.12 138.451 1295.55 140.887 1296.33 142.505C1297.16 144.101 1298.35 145.191 1299.92 145.822C1301.59 146.421 1303.75 146.74 1306.43 146.74V147.74L1305.92 147.736C1303.56 147.701 1301.56 147.414 1299.92 146.878L1299.57 146.76C1297.75 146.034 1296.37 144.763 1295.43 142.947C1294.61 141.245 1294.18 138.84 1294.13 135.733L1294.12 135.104Z" fill="#D6D6D6"/>
</g>
<g filter="url(#filter1_d_10101_186)">
<path d="M1141.3 51.7461H1172.29L1173.32 61.9277C1176.23 58.7279 1179.53 56.0995 1183.22 54.0498L1183.22 54.0479C1188.69 51.0489 1195.07 49.5664 1202.33 49.5664C1209.94 49.5664 1216.67 51.0076 1222.5 53.9209C1228.38 56.8255 1233.29 60.9969 1237.23 66.4219C1241.24 71.8386 1244.23 78.2755 1246.22 85.7139C1248.28 93.1472 1249.3 101.37 1249.3 110.374V112.662C1249.3 121.307 1248.28 129.347 1246.22 136.776L1246.22 136.777C1244.23 144.211 1241.28 150.714 1237.35 156.27L1237.35 156.274C1233.41 161.772 1228.5 166.089 1222.63 169.213L1222.62 169.215C1216.79 172.279 1210.09 173.796 1202.55 173.796C1195.22 173.796 1188.8 172.315 1183.33 169.315C1180.15 167.574 1177.27 165.425 1174.68 162.874V216.936H1141.3V51.7461ZM1215.82 112.662V110.374C1215.82 105.42 1215.39 100.877 1214.53 96.7412L1214.53 96.7314L1214.53 96.7227C1213.75 92.5271 1212.47 88.8954 1210.72 85.8125L1210.71 85.7969C1209.05 82.7457 1206.84 80.4122 1204.1 78.7676L1204.09 78.7607L1204.08 78.752C1201.44 77.0594 1198.18 76.1866 1194.27 76.1865C1190.09 76.1865 1186.57 76.8606 1183.68 78.168C1180.86 79.477 1178.56 81.3633 1176.78 83.834C1176 84.9165 1175.3 86.0941 1174.68 87.3682V135.831C1176.26 139.104 1178.48 141.742 1181.34 143.765C1184.61 146.081 1188.96 147.285 1194.49 147.285V148.285L1193.44 148.271C1188.43 148.131 1184.31 146.976 1181.09 144.809L1180.76 144.581C1177.7 142.413 1175.34 139.573 1173.68 136.062V87.1445C1174.25 85.9325 1174.9 84.7985 1175.62 83.7441L1175.97 83.248C1177.86 80.6337 1180.29 78.6367 1183.27 77.2568C1186.32 75.877 1189.98 75.1865 1194.27 75.1865L1195.02 75.1973C1198.76 75.3036 1201.96 76.2081 1204.62 77.9102C1207.52 79.6532 1209.85 82.1228 1211.59 85.3184C1213.41 88.5139 1214.71 92.2542 1215.51 96.5391C1216.38 100.751 1216.82 105.363 1216.82 110.374V112.662L1216.81 113.584C1216.77 118.176 1216.37 122.48 1215.62 126.497L1215.48 127.295C1214.73 131.252 1213.51 134.763 1211.81 137.827L1211.47 138.432C1209.78 141.415 1207.6 143.791 1204.94 145.562L1204.41 145.891C1201.67 147.486 1198.37 148.285 1194.49 148.285V147.285C1198.48 147.285 1201.76 146.411 1204.4 144.722C1207.08 142.934 1209.25 140.488 1210.92 137.356L1210.93 137.349L1210.93 137.341C1212.69 134.186 1213.92 130.521 1214.63 126.33L1214.64 126.322L1214.64 126.313C1215.42 122.097 1215.82 117.547 1215.82 112.662ZM1142.3 215.936H1173.68V160.38C1176.63 163.666 1180 166.352 1183.81 168.438C1188.95 171.253 1194.97 172.704 1201.88 172.792L1202.55 172.796C1209.96 172.796 1216.49 171.307 1222.16 168.329C1227.89 165.279 1232.69 161.067 1236.54 155.692C1240.39 150.245 1243.29 143.855 1245.25 136.52C1247.16 129.643 1248.17 122.224 1248.29 114.262L1248.3 112.662V110.374C1248.3 101.441 1247.29 93.3068 1245.25 85.9717C1243.29 78.6366 1240.35 72.3182 1236.43 67.0166C1232.58 61.715 1227.79 57.6478 1222.05 54.8154C1216.56 52.0715 1210.22 50.657 1203.03 50.5713L1202.33 50.5664C1195.21 50.5664 1189 52.0198 1183.7 54.9248C1179.46 57.2791 1175.75 60.4204 1172.56 64.3486L1171.39 52.7461H1142.3V215.936Z" fill="#D6D6D6"/>
</g>
<g filter="url(#filter2_d_10101_186)">
<path d="M959.094 51.7461H990.539L991.501 63.7178C995.118 59.6178 999.392 56.35 1004.32 53.9189C1010.21 51.0075 1017.02 49.5664 1024.69 49.5664C1030.03 49.5664 1034.94 50.3814 1039.42 52.0244C1043.92 53.6027 1047.79 56.1227 1051.03 59.5791C1053.01 61.6102 1054.71 64.009 1056.14 66.7646C1056.35 66.4639 1056.57 66.1655 1056.79 65.8701L1056.8 65.8623C1060.74 60.7288 1065.62 56.7438 1071.43 53.916C1077.25 51.0065 1083.94 49.5664 1091.47 49.5664C1097.23 49.5664 1102.5 50.4156 1107.27 52.127C1112.06 53.7755 1116.16 56.44 1119.54 60.1152L1119.86 60.458C1123.17 64.0304 1125.67 68.6337 1127.39 74.2285C1129.25 80.0214 1130.17 87.067 1130.17 95.3408V171.617H1096.68V95.3408C1096.68 89.9545 1095.96 86.0021 1094.61 83.3779L1094.61 83.3643L1094.6 83.3506C1093.32 80.6449 1091.46 78.8413 1089.03 77.8564L1089.01 77.8506L1089 77.8438C1086.54 76.7517 1083.56 76.1865 1080.04 76.1865C1076.4 76.1865 1073.26 76.9214 1070.6 78.3555L1070.59 78.3604L1070.58 78.3643C1067.89 79.7437 1065.65 81.6728 1063.85 84.1611C1062.85 85.5471 1061.98 87.0652 1061.26 88.7178C1061.3 89.7771 1061.32 90.8593 1061.32 91.9639V171.617H1027.94V95.4492C1027.94 90.1409 1027.22 86.1812 1025.87 83.4775C1024.51 80.7586 1022.61 78.9059 1020.16 77.8477L1020.15 77.8438C1017.69 76.7527 1014.68 76.1865 1011.08 76.1865C1007.15 76.1865 1003.76 76.9924 1000.88 78.5693C998.054 80.1577 995.703 82.3674 993.828 85.2148L993.822 85.2246L993.821 85.2236C993.38 85.8779 992.966 86.5613 992.577 87.2715V171.617H959.094V51.7461ZM960.094 170.617H991.577V87.0156C991.909 86.396 992.261 85.7956 992.632 85.2148L992.993 84.665C994.954 81.6874 997.424 79.3628 1000.4 77.6924C1003.45 76.0221 1007.01 75.1865 1011.08 75.1865C1014.78 75.1865 1017.94 75.7677 1020.55 76.9297C1023.24 78.0917 1025.31 80.1253 1026.76 83.0303C1028.22 85.9352 1028.94 90.0751 1028.94 95.4492V170.617H1060.32V91.9639C1060.32 90.7922 1060.29 89.6472 1060.25 88.5293C1060.94 86.9281 1061.75 85.4415 1062.69 84.0703L1063.04 83.5752C1064.81 81.1241 1067 79.1837 1069.6 77.7539L1070.12 77.4746C1072.95 75.9496 1076.26 75.1865 1080.04 75.1865C1083.67 75.1865 1086.79 75.7677 1089.4 76.9297C1092.09 78.0191 1094.13 80.0169 1095.5 82.9219C1096.96 85.7543 1097.68 89.8941 1097.68 95.3408V170.617H1129.17V95.3408C1129.17 87.1341 1128.26 80.198 1126.44 74.5332C1124.7 68.8684 1122.16 64.2927 1118.82 60.8066C1115.55 57.2482 1111.59 54.67 1106.94 53.0723C1102.3 51.4019 1097.14 50.5664 1091.47 50.5664C1084.07 50.5664 1077.53 51.9831 1071.87 54.8154C1066.2 57.5752 1061.44 61.4605 1057.59 66.4717C1057.04 67.2086 1056.51 67.9648 1055.99 68.7363C1054.45 65.4021 1052.56 62.5771 1050.29 60.2627C1047.37 57.1306 1043.9 54.796 1039.88 53.2598L1039.07 52.9639C1034.72 51.3661 1029.92 50.5664 1024.69 50.5664C1017.14 50.5664 1010.5 51.9831 1004.76 54.8154L1004.22 55.084C998.926 57.7929 994.419 61.5125 990.7 66.2422L989.616 52.7461H960.094V170.617Z" fill="#D6D6D6"/>
</g>
<g filter="url(#filter3_d_10101_186)">
<path d="M952.076 110.592C952.076 101.949 950.841 93.9969 948.372 86.7344C945.903 79.3992 942.272 73.0442 937.479 67.6699C932.905 62.4637 927.276 58.3819 920.59 55.4248L919.939 55.1426C913.185 52.1876 905.511 50.6636 896.916 50.5713L896.082 50.5664C887.149 50.5664 879.232 52.0923 872.333 55.1426L871.689 55.4248C865.072 58.3819 859.476 62.4637 854.903 67.6699L854.464 68.1768C849.959 73.4425 846.51 79.6284 844.118 86.7344C841.649 93.9969 840.414 101.949 840.414 110.592V112.88L840.429 114.479C840.573 122.441 841.803 129.861 844.118 136.737C846.587 144 850.183 150.355 854.903 155.802C859.697 161.176 865.543 165.352 872.442 168.329C879.197 171.214 886.871 172.702 895.465 172.792L896.3 172.796C905.233 172.796 913.149 171.307 920.048 168.329C926.732 165.445 932.393 161.436 937.032 156.302L937.479 155.802C942.122 150.525 945.675 144.396 948.138 137.415L948.372 136.737C950.687 129.861 951.917 122.441 952.062 114.479L952.076 112.88V110.592ZM919.593 112.88V110.592C919.593 105.864 919.127 101.436 918.201 97.3027L918.198 97.293L918.196 97.2832C917.344 93.0934 915.965 89.4262 914.07 86.2686L914.063 86.2578L914.058 86.2461C912.249 83.0469 909.862 80.5614 906.894 78.7666C903.957 76.9911 900.369 76.0782 896.082 76.0781C891.795 76.0781 888.206 76.9911 885.27 78.7666C882.375 80.5608 879.983 83.0476 878.101 86.2529L878.102 86.2539C876.275 89.4151 874.929 93.0877 874.075 97.2832V97.2861C873.219 101.425 872.788 105.859 872.788 110.592V112.88C872.788 117.76 873.219 122.304 874.075 126.516C874.928 130.707 876.273 134.376 878.097 137.535C879.973 140.589 882.393 142.971 885.363 144.697C888.3 146.405 891.931 147.285 896.3 147.285V148.285L895.463 148.274C891.598 148.175 888.262 147.38 885.454 145.891L884.861 145.562C881.739 143.746 879.196 141.24 877.235 138.045C875.465 134.981 874.141 131.47 873.265 127.513L873.096 126.715C872.279 122.698 871.844 118.393 871.793 113.802L871.788 112.88V110.592C871.788 106.098 872.172 101.86 872.938 97.877L873.096 97.084C873.967 92.7991 875.347 89.0221 877.235 85.7539C879.196 82.4132 881.702 79.7984 884.752 77.9102C887.875 76.0219 891.652 75.0781 896.082 75.0781L896.904 75.0889C900.981 75.1995 904.483 76.1399 907.411 77.9102C910.534 79.7984 913.039 82.4132 914.928 85.7539C916.889 89.0221 918.305 92.7991 919.177 97.084C920.121 101.296 920.593 105.799 920.593 110.592V112.88L920.587 113.802C920.532 118.393 920.062 122.698 919.177 126.715L919.007 127.513C918.13 131.47 916.807 134.981 915.037 138.045C913.149 141.24 910.643 143.746 907.521 145.562L906.928 145.891C903.928 147.487 900.385 148.285 896.3 148.285V147.285C900.517 147.285 904.076 146.407 907.018 144.697C909.988 142.97 912.372 140.588 914.176 137.536C916 134.377 917.344 130.708 918.196 126.516L918.2 126.5C919.127 122.294 919.593 117.755 919.593 112.88ZM953.076 112.88C953.076 121.547 951.828 129.608 949.32 137.057L949.319 137.06C946.889 144.209 943.344 150.506 938.684 155.939L938.229 156.462C933.406 161.953 927.473 166.215 920.444 169.248C913.399 172.289 905.344 173.796 896.3 173.796C887.256 173.796 879.165 172.288 872.049 169.249L872.046 169.248C865.019 166.215 859.051 161.954 854.156 156.467L854.151 156.462L854.147 156.456C849.337 150.905 845.679 144.436 843.171 137.06L843.17 137.057C840.663 129.608 839.414 121.547 839.414 112.88V110.592C839.414 101.854 840.662 93.7905 843.171 86.4121C845.679 78.9633 849.337 72.4916 854.151 67.0107C858.973 61.5216 864.904 57.2606 871.929 54.2275L872.593 53.9404C879.482 51.017 887.318 49.5664 896.082 49.5664C905.125 49.5665 913.215 51.1109 920.331 54.2227H920.332C927.431 57.2544 933.4 61.5143 938.225 67.0049L938.68 67.5215C943.344 72.8918 946.889 79.1929 949.319 86.4121L949.551 87.1064C951.905 94.2956 953.076 102.127 953.076 110.592V112.88Z" fill="#D6D6D6"/>
</g>
<g filter="url(#filter4_d_10101_186)">
<path d="M835.232 49.5664C837.019 49.5664 838.838 49.7155 840.689 50.0098L841.374 50.0986C842.939 50.3198 844.283 50.6325 845.388 51.0469L846.05 51.2949L845.471 82.2197L844.351 82.0596C842.858 81.8464 841.033 81.6667 838.87 81.5225L838.852 81.5215L838.833 81.5195C836.754 81.3045 834.864 81.1982 833.162 81.1982C828.816 81.1983 825.086 81.769 821.95 82.8838L821.938 82.8877C818.873 83.9325 816.321 85.4902 814.261 87.5508C812.739 89.128 811.492 90.9718 810.522 93.0898V171.617H777.148V51.7461H808.602L809.482 63.9854C812.399 59.5959 815.904 56.1371 820.005 53.6348C824.462 50.9152 829.548 49.5664 835.232 49.5664ZM778.148 170.617H809.522V92.876C810.551 90.5721 811.894 88.5611 813.554 86.8438C815.596 84.8012 818.085 83.2365 821.021 82.1514L821.615 81.9414C824.883 80.7795 828.732 80.1983 833.162 80.1982L833.824 80.2031C835.389 80.2269 837.093 80.3347 838.937 80.5254C841.115 80.6706 842.967 80.8515 844.492 81.0693L845.037 51.9834C844.02 51.6022 842.753 51.3043 841.236 51.0898L840.57 51.0029C838.982 50.7487 837.421 50.605 835.888 50.5732L835.232 50.5664C829.713 50.5664 824.81 51.8738 820.525 54.4883C816.24 57.1028 812.609 60.8073 809.632 65.6006L809.096 66.5088C808.965 66.7352 808.838 66.9644 808.711 67.1943L807.671 52.7461H778.148V170.617Z" fill="#D6D6D6"/>
</g>
<g filter="url(#filter5_d_10101_186)">
<path d="M768.71 64.0752C768.71 54.2958 766.495 45.5728 762.064 37.9062L761.629 37.167C756.908 29.3236 750.081 23.187 741.148 18.7568C732.565 14.3948 722.312 12.1452 710.389 12.0088L709.229 12.0029V11.0029C721.767 11.003 732.57 13.2756 741.602 17.8652H741.601C750.685 22.372 757.659 28.6323 762.485 36.6514C767.309 44.6663 769.71 53.8178 769.71 64.0752C769.71 74.4739 767.311 83.5263 762.475 91.1904C757.639 98.8528 750.653 104.747 741.564 108.886C732.543 113.027 721.754 115.078 709.229 115.078H681.143V171.617H646.461V11.0029H709.229V12.0029H647.461V170.617H680.143V114.078H709.229L710.389 114.072C722.312 113.949 732.565 111.917 741.148 107.978C749.802 104.038 756.479 98.4958 761.18 91.3525L761.629 90.6562C766.202 83.4096 768.56 74.8679 768.703 65.0312L768.71 64.0752ZM734.811 64.293C734.811 59.7044 733.929 55.4506 732.174 51.5195C730.442 47.6407 727.709 44.5217 723.947 42.1533C720.232 39.8139 715.35 38.6036 709.229 38.6035H681.143V87.5869H709.229V88.5869H680.143V37.6035H709.229C715.475 37.6036 720.559 38.8375 724.48 41.3066C728.402 43.7759 731.271 47.0443 733.087 51.1113C734.903 55.1783 735.811 59.5724 735.811 64.293L735.8 65.1592C735.693 69.4614 734.789 73.3489 733.087 76.8213L732.913 77.166C731.09 80.7057 728.28 83.4958 724.48 85.5361C720.804 87.4425 716.106 88.4551 710.387 88.5742L709.229 88.5869V87.5869C715.377 87.5869 720.288 86.584 724.021 84.6484C727.767 82.6336 730.474 79.8779 732.188 76.3809C733.929 72.8304 734.811 68.8079 734.811 64.293Z" fill="#D6D6D6"/>
</g>
<g filter="url(#filter6_d_10101_186)">
<path d="M595.803 52.7461H572.271V42.2871C572.272 38.951 572.878 36.0936 574.091 33.7148L574.342 33.2461C575.635 30.9313 577.471 29.1585 579.85 27.9287L580.333 27.6895C583.02 26.3823 586.252 25.7285 590.028 25.7285C592.062 25.7285 593.841 25.8011 595.366 25.9463C596.891 26.0915 598.344 26.3459 599.724 26.709L600.051 3.06934C597.509 2.48835 594.894 2.01644 592.207 1.65332C589.856 1.27206 587.421 1.05742 584.903 1.00977L583.819 1C574.959 1 567.297 2.59746 560.833 5.79297C554.442 8.91587 549.467 13.5641 545.908 19.7373L545.587 20.3135C542.315 26.309 540.68 33.6335 540.68 42.2871V52.7461H523.141V74.9688H540.68V170.617H572.271V74.9688H595.803V52.7461ZM573.271 51.7461H596.803V75.9688H573.271V171.617H539.68V75.9688H522.141V51.7461H539.68V42.2871C539.68 33.2267 541.447 25.5285 545.04 19.2412L545.042 19.2383C548.7 12.8929 553.823 8.10507 560.394 4.89453C567.022 1.61834 574.842 0 583.819 0C586.768 1.47241e-05 589.611 0.221204 592.349 0.664062C595.062 1.03092 597.703 1.50731 600.273 2.09473L601.062 2.27539L600.706 28.002L599.47 27.6768C598.146 27.3284 596.747 27.0829 595.271 26.9424C593.786 26.8009 592.04 26.7285 590.028 26.7285C586.365 26.7285 583.29 27.3631 580.771 28.5889L580.76 28.5938C578.329 29.7415 576.49 31.4503 575.214 33.7334C573.936 36.0197 573.272 38.8562 573.271 42.2871V51.7461Z" fill="#D6D6D6"/>
</g>
<g filter="url(#filter7_d_10101_186)">
<path d="M524.166 110.592C524.166 101.949 522.931 93.9969 520.462 86.7344C517.993 79.3993 514.362 73.0442 509.568 67.6699C504.995 62.4637 499.366 58.3819 492.68 55.4248L492.029 55.1426C485.275 52.1877 477.601 50.6637 469.007 50.5713L468.172 50.5664C459.239 50.5664 451.322 52.0923 444.423 55.1426L443.779 55.4248C437.162 58.3819 431.566 62.4637 426.993 67.6699L426.554 68.1768C422.049 73.4425 418.6 79.6284 416.208 86.7344C413.739 93.9969 412.504 101.949 412.504 110.592V112.88L412.519 114.479C412.663 122.441 413.893 129.861 416.208 136.737C418.677 144 422.272 150.355 426.993 155.802C431.786 161.176 437.633 165.351 444.532 168.329C451.504 171.307 459.457 172.796 468.39 172.796C477.043 172.796 484.743 171.399 491.488 168.604L492.139 168.329C498.822 165.444 504.484 161.436 509.123 156.302L509.568 155.802C514.212 150.525 517.765 144.396 520.228 137.415L520.462 136.737C522.777 129.861 524.007 122.441 524.151 114.479L524.166 112.88V110.592ZM491.683 112.88V110.592C491.683 105.864 491.217 101.436 490.291 97.3027L490.287 97.2832C489.435 93.0935 488.056 89.4261 486.161 86.2686L486.154 86.2578L486.147 86.2461C484.339 83.0471 481.952 80.5613 478.984 78.7666C476.048 76.9911 472.459 76.0781 468.172 76.0781C463.885 76.0781 460.296 76.9911 457.359 78.7666C454.464 80.5608 452.073 83.0476 450.19 86.2529L450.191 86.2539C448.365 89.4151 447.019 93.0877 446.166 97.2832L446.165 97.2861C445.309 101.425 444.879 105.859 444.879 110.592V112.88C444.879 117.76 445.309 122.304 446.166 126.516C447.019 130.707 448.363 134.376 450.187 137.535C452.063 140.589 454.484 142.971 457.454 144.697C460.391 146.405 464.021 147.285 468.39 147.285V148.285L467.554 148.274C463.689 148.175 460.353 147.38 457.545 145.891L456.951 145.562C453.828 143.746 451.286 141.24 449.325 138.045C447.437 134.777 446.057 131 445.186 126.715C444.369 122.698 443.935 118.393 443.884 113.802L443.879 112.88V110.592C443.879 106.098 444.261 101.86 445.027 97.877L445.186 97.084C446.057 92.7991 447.437 89.0221 449.325 85.7539C451.286 82.4132 453.792 79.7984 456.842 77.9102C459.965 76.0219 463.742 75.0781 468.172 75.0781L468.995 75.0889C473.071 75.1995 476.573 76.1401 479.501 77.9102C482.624 79.7984 485.13 82.4131 487.019 85.7539C488.979 89.022 490.395 92.7991 491.267 97.084C492.211 101.296 492.683 105.799 492.683 110.592V112.88L492.678 113.802C492.622 118.393 492.152 122.698 491.267 126.715C490.395 131 489.015 134.777 487.127 138.045C485.239 141.24 482.733 143.746 479.61 145.562L479.018 145.891C476.017 147.486 472.475 148.285 468.39 148.285V147.285C472.607 147.285 476.166 146.407 479.107 144.697C482.076 142.972 484.459 140.593 486.262 137.544C488.088 134.383 489.434 130.711 490.287 126.516L490.288 126.508L490.29 126.5C491.217 122.294 491.683 117.755 491.683 112.88ZM525.166 112.88C525.166 121.547 523.918 129.608 521.41 137.057L521.409 137.06C518.978 144.209 515.434 150.506 510.773 155.939L510.319 156.462C505.496 161.953 499.562 166.215 492.534 169.248C485.488 172.289 477.433 173.796 468.39 173.796C459.346 173.796 451.256 172.288 444.14 169.249L444.136 169.248C437.109 166.215 431.142 161.954 426.247 156.467L426.242 156.462L426.237 156.456C421.427 150.906 417.77 144.436 415.262 137.06L415.261 137.057C412.753 129.608 411.504 121.547 411.504 112.88V110.592C411.504 101.854 412.753 93.7905 415.262 86.4121C417.77 78.9632 421.428 72.4916 426.242 67.0107C431.064 61.5217 436.994 57.2606 444.019 54.2275C451.067 51.1116 459.125 49.5664 468.172 49.5664C477.215 49.5664 485.305 51.111 492.421 54.2227H492.422C499.521 57.2544 505.49 61.5144 510.314 67.0049L510.77 67.5215C515.434 72.8919 518.979 79.1929 521.409 86.4121L521.641 87.1064C523.995 94.2957 525.166 102.127 525.166 110.592V112.88Z" fill="#D6D6D6"/>
</g>
<g filter="url(#filter8_d_10101_186)">
<path d="M359.754 3.28711H328.162V63.4639C325.281 60.0815 321.994 57.3269 318.301 55.2002L317.812 54.9248C312.656 52.0198 306.628 50.5664 299.729 50.5664C292.394 50.5665 285.857 52.0198 280.12 54.9248L279.585 55.2002C274.082 58.087 269.43 62.0983 265.631 67.2344C261.709 72.536 258.732 78.8911 256.698 86.2988C254.665 93.6339 253.648 101.804 253.648 110.81V113.098L253.66 114.697C253.779 122.655 254.792 130.038 256.698 136.847C258.732 144.109 261.673 150.428 265.522 155.802C269.444 161.176 274.238 165.351 279.902 168.329C285.64 171.307 292.176 172.796 299.511 172.796C306.265 172.796 312.202 171.432 317.32 168.706L317.812 168.438C322.421 165.878 326.409 162.414 329.776 158.048L331.321 170.617H359.754V3.28711ZM285.022 113.098V110.81C285.022 105.799 285.422 101.151 286.221 96.8662C287.092 92.5087 288.4 88.7317 290.143 85.5361C291.845 82.5403 294.026 80.1512 296.686 78.3682L297.224 78.0195C300.129 76.1313 303.615 75.1865 307.682 75.1865L308.424 75.1953C312.105 75.2804 315.307 76.0045 318.03 77.3662C321.008 78.8187 323.478 80.8523 325.438 83.4668C326.48 84.8059 327.387 86.2882 328.162 87.9131V135.538C326.375 139.259 323.908 142.237 320.754 144.472C317.268 146.868 312.838 148.067 307.464 148.067V147.067C312.69 147.067 316.908 145.902 320.188 143.647C323.129 141.561 325.454 138.79 327.162 135.312V88.1406C326.438 86.6559 325.6 85.3029 324.649 84.0801L324.644 84.0732L324.639 84.0664C322.774 81.5805 320.429 79.6486 317.592 78.2646L317.583 78.2598C314.845 76.891 311.556 76.1865 307.682 76.1865C303.774 76.1865 300.485 77.092 297.769 78.8574L297.753 78.8672C295.004 80.5856 292.759 82.9602 291.021 86.0146L290.709 86.6016C289.179 89.5638 288.005 93.0416 287.203 97.0479L287.204 97.0488C286.418 101.265 286.022 105.851 286.022 110.81V113.098C286.022 117.908 286.38 122.384 287.094 126.528C287.875 130.649 289.114 134.286 290.798 137.448C292.538 140.508 294.748 142.884 297.424 144.603C300.14 146.229 303.472 147.067 307.464 147.067V148.067L306.694 148.057C302.886 147.954 299.62 147.086 296.896 145.452C294.064 143.637 291.74 141.131 289.925 137.936C288.182 134.667 286.91 130.927 286.111 126.715C285.43 122.766 285.069 118.529 285.026 114.006L285.022 113.098ZM360.754 171.617H330.437L329.07 160.496C325.955 164.111 322.365 167.054 318.299 169.312C312.898 172.313 306.624 173.796 299.511 173.796C292.037 173.796 285.339 172.278 279.441 169.217L279.437 169.215C273.631 166.163 268.723 161.883 264.715 156.391L264.709 156.384C260.783 150.903 257.796 144.475 255.735 137.116C253.674 129.755 252.648 121.746 252.648 113.098V110.81C252.648 101.73 253.673 93.4675 255.734 86.0312C257.795 78.5249 260.821 72.0547 264.827 66.6396C268.839 61.2161 273.788 57.0094 279.668 54.0322C285.564 51.047 292.259 49.5665 299.729 49.5664C306.769 49.5664 312.971 51.0492 318.299 54.0498L318.8 54.334C321.863 56.0979 324.65 58.2803 327.162 60.876V2.28711H360.754V171.617Z" fill="#D6D6D6"/>
</g>
<g filter="url(#filter9_d_10101_186)">
<path d="M250.428 110.592C250.428 101.949 249.193 93.9969 246.724 86.7344C244.254 79.3992 240.622 73.0442 235.829 67.6699C231.256 62.4637 225.626 58.3819 218.94 55.4248L218.29 55.1426C211.318 52.0924 203.365 50.5664 194.433 50.5664C185.5 50.5664 177.584 52.0924 170.685 55.1426L170.041 55.4248C163.423 58.382 157.827 62.4635 153.254 67.6699C148.533 73.0442 144.938 79.3992 142.469 86.7344C140 93.9969 138.766 101.949 138.766 110.592V112.88L138.779 114.479C138.924 122.441 140.154 129.861 142.469 136.737C144.938 144 148.533 150.355 153.254 155.802C158.047 161.176 163.894 165.351 170.793 168.329C177.765 171.307 185.718 172.796 194.65 172.796C203.304 172.796 211.005 171.399 217.75 168.604L218.399 168.329C225.299 165.352 231.109 161.176 235.829 155.802C240.473 150.525 244.026 144.396 246.488 137.415L246.724 136.737C249.039 129.861 250.268 122.441 250.413 114.479L250.428 112.88V110.592ZM217.944 112.88V110.592C217.944 105.864 217.478 101.436 216.552 97.3027L216.548 97.2832C215.696 93.0934 214.316 89.4262 212.422 86.2686L212.415 86.2578L212.409 86.2461C210.601 83.0469 208.213 80.5613 205.245 78.7666C202.309 76.9911 198.719 76.0781 194.433 76.0781C190.146 76.0782 186.557 76.9911 183.621 78.7666C180.724 80.562 178.333 83.0513 176.449 86.2598C174.624 89.4197 173.28 93.0901 172.427 97.2832L172.426 97.2861C171.57 101.425 171.14 105.859 171.14 110.592V112.88C171.14 117.76 171.57 122.304 172.427 126.516C173.279 130.707 174.623 134.376 176.447 137.535C178.324 140.589 180.745 142.971 183.715 144.697C186.652 146.405 190.281 147.285 194.65 147.285V148.285L193.814 148.274C189.95 148.175 186.614 147.38 183.806 145.891L183.212 145.562C180.089 143.746 177.548 141.24 175.587 138.045C173.817 134.981 172.493 131.47 171.616 127.513L171.447 126.715C170.63 122.698 170.196 118.393 170.145 113.802L170.14 112.88V110.592C170.14 106.098 170.522 101.86 171.288 97.877L171.447 97.084C172.319 92.7991 173.699 89.0221 175.587 85.7539C177.548 82.4132 180.053 79.7984 183.104 77.9102C186.226 76.022 190.003 75.0782 194.433 75.0781L195.256 75.0889C199.333 75.1995 202.835 76.1399 205.763 77.9102C208.886 79.7984 211.391 82.4132 213.279 85.7539C215.24 89.0221 216.657 92.7991 217.528 97.084C218.472 101.296 218.944 105.799 218.944 110.592V112.88L218.938 113.802C218.883 118.393 218.413 122.698 217.528 126.715L217.358 127.513C216.482 131.47 215.159 134.981 213.389 138.045C211.5 141.24 208.994 143.746 205.871 145.562L205.278 145.891C202.278 147.486 198.736 148.285 194.65 148.285V147.285C198.868 147.285 202.428 146.407 205.369 144.697C208.34 142.97 210.724 140.588 212.527 137.536C214.351 134.377 215.695 130.707 216.548 126.516L216.552 126.5C217.479 122.294 217.944 117.755 217.944 112.88ZM251.428 112.88C251.428 121.547 250.178 129.608 247.671 137.057L247.67 137.06C245.161 144.439 241.465 150.91 236.58 156.461C231.757 161.952 225.824 166.215 218.796 169.248C211.75 172.289 203.694 173.796 194.65 173.796C185.606 173.796 177.517 172.288 170.4 169.249L170.396 169.248C163.369 166.215 157.402 161.954 152.508 156.467L152.503 156.462L152.498 156.456C147.688 150.906 144.031 144.436 141.522 137.06L141.521 137.057C139.014 129.608 137.766 121.547 137.766 112.88V110.592C137.766 101.854 139.014 93.7905 141.522 86.4121C144.03 78.9632 147.689 72.4916 152.503 67.0107C157.325 61.5215 163.255 57.2606 170.28 54.2275L170.943 53.9404C177.832 51.0169 185.668 49.5664 194.433 49.5664C203.476 49.5664 211.566 51.1108 218.683 54.2227H218.684C225.782 57.2544 231.752 61.5143 236.576 67.0049L237.03 67.5215C241.694 72.8919 245.239 79.1929 247.67 86.4121C250.179 93.7905 251.428 101.854 251.428 110.592V112.88Z" fill="#D6D6D6"/>
</g>
<g filter="url(#filter10_d_10101_186)">
<path d="M34.1172 96.3213V86.1895C34.1172 78.3596 34.7875 71.4235 36.1279 65.3809L36.4043 64.1846C37.8341 58.261 39.8711 53.231 42.5137 49.0947L43.0498 48.2793C45.7732 44.2623 49.0711 41.1709 52.9434 39.0049L53.7256 38.584C58.0104 36.3326 62.8765 35.2061 68.3232 35.2061C74.9322 35.2061 80.3066 36.3326 84.4463 38.584C88.6585 40.8353 91.8902 43.9579 94.1416 47.9521C96.2523 51.6969 97.7255 56.0483 98.5596 61.0059L98.7178 62.0059H130.419C129.33 51.8383 126.424 42.8319 121.703 34.9883C117.2 27.3197 110.721 21.2868 102.266 16.8896L101.441 16.4688C92.8579 12.1066 81.9566 9.85797 68.7383 9.72168L67.4521 9.71484C57.5024 9.71484 48.4603 11.4216 40.3262 14.835C32.1922 18.2484 25.1834 23.2235 19.3008 29.7598L18.7539 30.377C13.1364 36.7992 8.77926 44.6183 5.68359 53.835C2.56073 63.3488 1.00004 74.2063 1 86.4072V96.3213L1.00391 97.4609C1.10284 109.199 2.73539 119.677 5.90137 128.894C9.16952 138.335 13.8178 146.324 19.8457 152.86C25.9463 159.397 33.2092 164.372 41.6338 167.785C50.0583 171.126 59.3907 172.796 69.6309 172.796C80.8175 172.796 90.4025 171.638 98.3857 169.32L99.1533 169.092C107.287 166.623 113.932 163.681 119.089 160.268C124.245 156.782 128.058 153.55 130.527 150.572V87.7148H67.9971V111.027H97.8457V139.134C96.6837 140.296 95.0136 141.531 92.835 142.838L92.4316 143.067C90.3763 144.204 87.7143 145.18 84.4463 145.997C81.0329 146.869 76.7481 147.305 71.5918 147.305V146.305C76.6995 146.305 80.8945 145.872 84.1992 145.028L84.2041 145.027C87.6319 144.17 90.326 143.148 92.3203 141.98C94.2782 140.806 95.7761 139.711 96.8457 138.706V112.027H66.9971V86.7148H131.527V150.934L131.297 151.211C128.742 154.292 124.843 157.586 119.649 161.097L119.641 161.102C114.38 164.584 107.638 167.561 99.4434 170.049C91.1883 172.555 81.2439 173.796 69.6309 173.796C59.2807 173.796 49.8208 172.108 41.2646 168.715L41.2578 168.712C32.7009 165.245 25.3167 160.187 19.1152 153.543L19.1104 153.538C12.9783 146.889 8.26462 138.776 4.95703 129.221L4.95605 129.219C1.64529 119.581 1.96173e-05 108.61 0 96.3213V86.4072C3.67773e-05 74.1228 1.57127 63.1571 4.7334 53.5234L4.73633 53.5166C7.96922 43.8914 12.5716 35.7421 18.5576 29.0908C24.5393 22.4445 31.6698 17.3834 39.9395 13.9131C48.2108 10.4421 57.3865 8.71484 67.4521 8.71484C81.3475 8.71485 92.8443 10.9801 101.888 15.5742C110.903 20.0819 117.806 26.3812 122.56 34.4727C127.364 42.4548 130.31 51.6033 131.413 61.8984L131.531 63.0059H97.8555L97.7285 62.1523C96.9444 56.8771 95.4519 52.3136 93.2705 48.4434C91.1166 44.6219 88.0272 41.6315 83.9756 39.4658L83.9688 39.4619C80.0229 37.3159 74.8287 36.2061 68.3232 36.2061C63.0181 36.2061 58.3155 37.3019 54.1914 39.4688L54.1855 39.4717C50.1348 41.5669 46.6981 44.6802 43.8779 48.8398C41.055 53.0037 38.8808 58.1885 37.377 64.4189C35.8748 70.6423 35.1172 77.8955 35.1172 86.1895V96.3213C35.1172 104.537 35.9093 111.787 37.4824 118.081C39.0549 124.299 41.3683 129.514 44.4014 133.749C47.5017 137.904 51.2939 141.026 55.7842 143.131C60.2752 145.236 65.536 146.305 71.5918 146.305V147.305L70.4434 147.292C64.9352 147.169 60.0534 146.15 55.7979 144.237L55.3604 144.036C50.7124 141.857 46.7902 138.626 43.5947 134.341C40.4719 129.983 38.1114 124.645 36.5137 118.327C35.0158 112.336 34.2196 105.514 34.126 97.8623L34.1172 96.3213Z" fill="#D6D6D6"/>
</g>
<defs>
<filter id="filter0_d_10101_186" x="1244.75" y="22.6592" width="72.0508" height="152.137" filterUnits="userSpaceOnUse" color-interpolation-filters="sRGB">
<feFlood flood-opacity="0" result="BackgroundImageFix"/>
<feColorMatrix in="SourceAlpha" type="matrix" values="0 0 0 0 0 0 0 0 0 0 0 0 0 0 0 0 0 0 127 0" result="hardAlpha"/>
<feOffset dy="1"/>
<feComposite in2="hardAlpha" operator="out"/>
<feColorMatrix type="matrix" values="0 0 0 0 1 0 0 0 0 1 0 0 0 0 1 0 0 0 1 0"/>
<feBlend mode="normal" in2="BackgroundImageFix" result="effect1_dropShadow_10101_186"/>
<feBlend mode="normal" in="SourceGraphic" in2="effect1_dropShadow_10101_186" result="shape"/>
</filter>
<filter id="filter1_d_10101_186" x="1141.3" y="49.5664" width="107.997" height="168.369" filterUnits="userSpaceOnUse" color-interpolation-filters="sRGB">
<feFlood flood-opacity="0" result="BackgroundImageFix"/>
<feColorMatrix in="SourceAlpha" type="matrix" values="0 0 0 0 0 0 0 0 0 0 0 0 0 0 0 0 0 0 127 0" result="hardAlpha"/>
<feOffset dy="1"/>
<feComposite in2="hardAlpha" operator="out"/>
<feColorMatrix type="matrix" values="0 0 0 0 1 0 0 0 0 1 0 0 0 0 1 0 0 0 1 0"/>
<feBlend mode="normal" in2="BackgroundImageFix" result="effect1_dropShadow_10101_186"/>
<feBlend mode="normal" in="SourceGraphic" in2="effect1_dropShadow_10101_186" result="shape"/>
</filter>
<filter id="filter2_d_10101_186" x="959.094" y="49.5664" width="171.073" height="123.051" filterUnits="userSpaceOnUse" color-interpolation-filters="sRGB">
<feFlood flood-opacity="0" result="BackgroundImageFix"/>
<feColorMatrix in="SourceAlpha" type="matrix" values="0 0 0 0 0 0 0 0 0 0 0 0 0 0 0 0 0 0 127 0" result="hardAlpha"/>
<feOffset dy="1"/>
<feComposite in2="hardAlpha" operator="out"/>
<feColorMatrix type="matrix" values="0 0 0 0 1 0 0 0 0 1 0 0 0 0 1 0 0 0 1 0"/>
<feBlend mode="normal" in2="BackgroundImageFix" result="effect1_dropShadow_10101_186"/>
<feBlend mode="normal" in="SourceGraphic" in2="effect1_dropShadow_10101_186" result="shape"/>
</filter>
<filter id="filter3_d_10101_186" x="839.414" y="49.5664" width="113.662" height="125.229" filterUnits="userSpaceOnUse" color-interpolation-filters="sRGB">
<feFlood flood-opacity="0" result="BackgroundImageFix"/>
<feColorMatrix in="SourceAlpha" type="matrix" values="0 0 0 0 0 0 0 0 0 0 0 0 0 0 0 0 0 0 127 0" result="hardAlpha"/>
<feOffset dy="1"/>
<feComposite in2="hardAlpha" operator="out"/>
<feColorMatrix type="matrix" values="0 0 0 0 1 0 0 0 0 1 0 0 0 0 1 0 0 0 1 0"/>
<feBlend mode="normal" in2="BackgroundImageFix" result="effect1_dropShadow_10101_186"/>
<feBlend mode="normal" in="SourceGraphic" in2="effect1_dropShadow_10101_186" result="shape"/>
</filter>
<filter id="filter4_d_10101_186" x="777.148" y="49.5664" width="68.9014" height="123.051" filterUnits="userSpaceOnUse" color-interpolation-filters="sRGB">
<feFlood flood-opacity="0" result="BackgroundImageFix"/>
<feColorMatrix in="SourceAlpha" type="matrix" values="0 0 0 0 0 0 0 0 0 0 0 0 0 0 0 0 0 0 127 0" result="hardAlpha"/>
<feOffset dy="1"/>
<feComposite in2="hardAlpha" operator="out"/>
<feColorMatrix type="matrix" values="0 0 0 0 1 0 0 0 0 1 0 0 0 0 1 0 0 0 1 0"/>
<feBlend mode="normal" in2="BackgroundImageFix" result="effect1_dropShadow_10101_186"/>
<feBlend mode="normal" in="SourceGraphic" in2="effect1_dropShadow_10101_186" result="shape"/>
</filter>
<filter id="filter5_d_10101_186" x="646.461" y="11.0029" width="123.249" height="161.614" filterUnits="userSpaceOnUse" color-interpolation-filters="sRGB">
<feFlood flood-opacity="0" result="BackgroundImageFix"/>
<feColorMatrix in="SourceAlpha" type="matrix" values="0 0 0 0 0 0 0 0 0 0 0 0 0 0 0 0 0 0 127 0" result="hardAlpha"/>
<feOffset dy="1"/>
<feComposite in2="hardAlpha" operator="out"/>
<feColorMatrix type="matrix" values="0 0 0 0 1 0 0 0 0 1 0 0 0 0 1 0 0 0 1 0"/>
<feBlend mode="normal" in2="BackgroundImageFix" result="effect1_dropShadow_10101_186"/>
<feBlend mode="normal" in="SourceGraphic" in2="effect1_dropShadow_10101_186" result="shape"/>
</filter>
<filter id="filter6_d_10101_186" x="522.141" y="0" width="78.9209" height="172.617" filterUnits="userSpaceOnUse" color-interpolation-filters="sRGB">
<feFlood flood-opacity="0" result="BackgroundImageFix"/>
<feColorMatrix in="SourceAlpha" type="matrix" values="0 0 0 0 0 0 0 0 0 0 0 0 0 0 0 0 0 0 127 0" result="hardAlpha"/>
<feOffset dy="1"/>
<feComposite in2="hardAlpha" operator="out"/>
<feColorMatrix type="matrix" values="0 0 0 0 1 0 0 0 0 1 0 0 0 0 1 0 0 0 1 0"/>
<feBlend mode="normal" in2="BackgroundImageFix" result="effect1_dropShadow_10101_186"/>
<feBlend mode="normal" in="SourceGraphic" in2="effect1_dropShadow_10101_186" result="shape"/>
</filter>
<filter id="filter7_d_10101_186" x="411.504" y="49.5664" width="113.662" height="125.229" filterUnits="userSpaceOnUse" color-interpolation-filters="sRGB">
<feFlood flood-opacity="0" result="BackgroundImageFix"/>
<feColorMatrix in="SourceAlpha" type="matrix" values="0 0 0 0 0 0 0 0 0 0 0 0 0 0 0 0 0 0 127 0" result="hardAlpha"/>
<feOffset dy="1"/>
<feComposite in2="hardAlpha" operator="out"/>
<feColorMatrix type="matrix" values="0 0 0 0 1 0 0 0 0 1 0 0 0 0 1 0 0 0 1 0"/>
<feBlend mode="normal" in2="BackgroundImageFix" result="effect1_dropShadow_10101_186"/>
<feBlend mode="normal" in="SourceGraphic" in2="effect1_dropShadow_10101_186" result="shape"/>
</filter>
<filter id="filter8_d_10101_186" x="252.648" y="2.28711" width="108.105" height="172.509" filterUnits="userSpaceOnUse" color-interpolation-filters="sRGB">
<feFlood flood-opacity="0" result="BackgroundImageFix"/>
<feColorMatrix in="SourceAlpha" type="matrix" values="0 0 0 0 0 0 0 0 0 0 0 0 0 0 0 0 0 0 127 0" result="hardAlpha"/>
<feOffset dy="1"/>
<feComposite in2="hardAlpha" operator="out"/>
<feColorMatrix type="matrix" values="0 0 0 0 1 0 0 0 0 1 0 0 0 0 1 0 0 0 1 0"/>
<feBlend mode="normal" in2="BackgroundImageFix" result="effect1_dropShadow_10101_186"/>
<feBlend mode="normal" in="SourceGraphic" in2="effect1_dropShadow_10101_186" result="shape"/>
</filter>
<filter id="filter9_d_10101_186" x="137.766" y="49.5664" width="113.662" height="125.229" filterUnits="userSpaceOnUse" color-interpolation-filters="sRGB">
<feFlood flood-opacity="0" result="BackgroundImageFix"/>
<feColorMatrix in="SourceAlpha" type="matrix" values="0 0 0 0 0 0 0 0 0 0 0 0 0 0 0 0 0 0 127 0" result="hardAlpha"/>
<feOffset dy="1"/>
<feComposite in2="hardAlpha" operator="out"/>
<feColorMatrix type="matrix" values="0 0 0 0 1 0 0 0 0 1 0 0 0 0 1 0 0 0 1 0"/>
<feBlend mode="normal" in2="BackgroundImageFix" result="effect1_dropShadow_10101_186"/>
<feBlend mode="normal" in="SourceGraphic" in2="effect1_dropShadow_10101_186" result="shape"/>
</filter>
<filter id="filter10_d_10101_186" x="0" y="8.71484" width="131.531" height="166.081" filterUnits="userSpaceOnUse" color-interpolation-filters="sRGB">
<feFlood flood-opacity="0" result="BackgroundImageFix"/>
<feColorMatrix in="SourceAlpha" type="matrix" values="0 0 0 0 0 0 0 0 0 0 0 0 0 0 0 0 0 0 127 0" result="hardAlpha"/>
<feOffset dy="1"/>
<feComposite in2="hardAlpha" operator="out"/>
<feColorMatrix type="matrix" values="0 0 0 0 1 0 0 0 0 1 0 0 0 0 1 0 0 0 1 0"/>
<feBlend mode="normal" in2="BackgroundImageFix" result="effect1_dropShadow_10101_186"/>
<feBlend mode="normal" in="SourceGraphic" in2="effect1_dropShadow_10101_186" result="shape"/>
</filter>
</defs>
</svg>
