<svg xmlns="http://www.w3.org/2000/svg" width="3437" height="3332" fill="none" viewBox="0 0 3437 3332"><g clip-path="url(#a)"><path fill="#212121" d="M1434.87 99.51c13.78-16.116 27.88-29.844 44.6-40.7 11.76-7.646 24.15-13.782 37.76-17.382 17.07-4.518 33.95-4.18 50.05 3.21 6.33 2.899 10.45 1.928 15.65-2.158 16.99-13.391 35.3-24.868 55.36-33.04 35.2-14.321 69.52-13.054 101.43 8.847 27.82 19.082 39.64 45.54 33.3 79.294-.5 2.643-1.18 5.259-1.63 7.903-.45 2.535-2.36 4.949-.3 8.617 15.3-5.718 31.12-9.845 47.87-7.579 4.53.607 5.06-2.657 4.73-6.109-.9-9.453-2.98-18.623-7.17-27.214-3.16-6.46-6.65-12.757-9.56-19.31-8.25-18.53-1.69-31.961 18.16-36.21 31.56-6.742 62.57-3.141 93.03 6.433 57.74 18.152 95.38 57.246 116.1 113.224 3.03 8.172 7.45 11.638 15.26 14.645 48.57 18.691 78 54.333 89.74 104.742 2.03 8.766 1.95 17.895.41 26.836-2.44 14.146-11.05 20.835-25.48 20.161-22.51-1.039-23.25-.095-16.22 21.954 3.68 11.557 7.18 23.155 9.18 35.157 3.37 20.214 2.9 40.267-2.44 60.131-1.16 4.329-1.71 8.86-3.12 13.108-8.29 25.205-5.43 49.438 4.95 73.496 8.17 18.947 16.48 37.854 23.17 57.461 15.6 45.757 16.76 91.499 1.89 137.633-8.42 26.108-16.33 52.418-33.35 74.629-3.43 4.477-2.62 7.74.77 11.813 10.04 12.083 20.05 24.233 29.5 36.788 26.4 35.116 34.67 74.184 25.07 117.175-5.39 24.153-5.42 24.706 14.79 39.337 28.4 20.568 57.7 39.728 90.55 52.738 17.65 7 36.18 10.79 54.71 14.03 39.24 6.85 71.07 24.46 91.15 60.04 2.79 4.95 7.15 6.48 11.86 7.88 17.63 5.28 35.07 11.17 52.17 18.01 23.58 9.42 44.59 22.91 64.06 39.17 59.61 49.78 99.78 112.54 124.25 185.7 11.25 33.63 21.67 67.55 32.07 101.46 6.98 22.81 15.25 45.07 25.44 66.63 10.61 22.47 17.55 46.16 22.78 70.34 4.15 19.18 3.77 38.38-1.74 57.36-7.51 25.89-14.79 51.9-29.99 74.65-2.89 4.32-2.5 8.39-1.65 12.81 10.76 56.45 20.08 113.15 36.36 168.48 18.39 62.56 26.2 126.72 21.75 191.91-2.91 42.64-10.87 84.62-20.19 126.32-.88 3.95-1.52 7.97-2.74 11.81-5.28 16.63-5.05 31.05 8.15 45.53 12.8 14.04 16.92 33.39 21.65 51.73 2.92 11.31 2.99 11 15 10.81 135.9-2.06 249.14 48.75 341.62 147.31 16.97 18.08 30.81 38.7 41.09 61.35 3.42 7.54 7.69 8.97 15.49 8.84 83.93-1.36 154.51 28.37 209.32 92.6 25.36 29.72 40.94 64.41 44.67 103.61 6.57 68.84-28.61 130.9-91.92 163.32-22.21 11.39-45.67 18.92-70.43 21.65-9.3 1.02-15.39 4.89-21.12 11.96-51.13 62.94-112.08 113.86-185.52 148.89-73.88 35.24-151.38 50.17-233.09 39.29-49.61-6.61-95.88-22.96-138.99-48.36-14.25-8.41-10.02-8.77-22.92.99-75.22 56.98-158.26 97.1-251.12 115.52-80.43 15.94-159.89 13.54-237.68-14.64-12.26-4.44-24.26-9.48-35.8-15.55-4.22-2.23-7.93-2.77-12.48-.16-46.73 26.74-97.68 34.54-150.63 32.93-11.21-.35-23.28-4-33.35-.91-10.03 3.09-17.99 12.83-26.97 19.5-60.22 44.79-127.6 73.01-201.38 85.69-132.35 22.74-257.22-2.08-376.51-60.71-33.53-16.48-65.35-35.87-95.54-57.85-5.42-3.96-9.9-5.74-16.94-2.94-82.51 32.71-165.87 30.86-249.383 4.39-55.57-17.62-105.085-46.21-147.966-85.85-5.367-4.96-9.655-5.92-16.586-3.58-70.781 23.95-143.799 34.87-218.329 36.78-109.764 2.82-216.778-12.52-320.501-48.91-64.847-22.75-125.689-53.2-179.007-97.24-37.164-30.69-68.529-66.19-87.07-111.43-24.286-59.22-18.946-115.99 15.628-169.77 22.304-34.7 52.887-60.89 87.488-82.61 50.419-31.65 105.665-51.25 163.366-64.37 7.281-1.66 10.113-4.69 12.325-11.57 17.004-52.85 47.991-96.07 91.627-130.23 11.354-8.88 23.356-17.15 37.029-21.72 9.399-3.14 11.839-8.77 12.527-17.63 2.023-26.2 8.576-51.49 19.458-75.33 42.045-92.09 110.938-153.04 209.537-178.96 12.622-3.32 25.567-5.13 38.593-5.61 6.688-.25 10.181-2.92 13.107-8.93 36.826-75.71 92.544-134.02 164.457-177.16 15.818-9.49 32.606-17.04 50.055-23.1 10.06-3.48 10.154-3.61 8.873-14.24-1.766-14.74-4.517-29.32-8.414-43.64-5.542-20.39-12.73-40.24-20.2-59.98-5.003-13.23-13.283-21.3-27.59-26.42-34.412-12.31-69.337-19.22-105.692-16.3-87.879 7.02-162.718-25.06-231.435-75.91-20.632-15.27-39.065-33.12-56.824-51.6-28.385-29.53-58.752-56.81-91.061-82-38.404-29.96-72.291-64.69-104.425-101.13-41.492-47.04-62.919-102.83-70.888-164.52-4.167-32.25-1.335-63.63 8.266-94.54 5.933-19.09 15.709-36.26 27.454-52.27 39.51-53.86 84.292-102.78 137.138-143.93 7.781-6.052 12.312-12.93 15.063-22.68 8.967-31.798 22.451-61.534 44.809-86.617 13.592-15.238 29.059-28.036 46.805-38.096 9.763-5.543 19.566-11.004 29.302-16.601 23.854-13.728 45.982-29.843 65.454-49.357 86.072-86.239 177.12-167.057 270.028-245.732 38.957-32.999 67.598-72.915 89.241-118.456 31.648-66.591 59.491-134.706 81.261-205.221 4.1-13.284 8.84-26.392 15.15-38.879 4.9-9.696 10.67-18.731 18.36-26.459 6.43-6.459 13.66-13.337 22.56-13.876 15.33-.931 20.47-10.775 25.9-22.521 6.58-14.24 14.71-27.766 22.1-41.63 8.11-15.197 18.52-28.642 30.79-40.671 14.4-14.106 31.52-21.672 51.82-22.562 37.85-1.672 74.23 5.368 109.57 18.233 16.55 6.028 31.5 15.211 45.54 25.851 18.26 13.85 36.6 27.551 55.75 41.954"/><path fill="#fff" d="M984.346 1974.31c1.119 1.44 1.564 1.75 1.645 2.14 1.659 7.5 3.924 15.62 1.834 22.63-2.346 7.88-12.298 7.7-18.838 10.99-85.842 43.27-147.116 109.06-182.972 198.38-3.843 9.57-7.322 19.29-10.814 29.02-1.052 2.94-1.956 6.02-2.293 9.1-.768 6.92 2.535 12.88 7.7 14.04 6.675 1.49 9.979-3.05 12.379-8.04 1.739-3.6 3.074-7.57 3.654-11.52 11.449-78.86 58.523-134.3 118.92-180.84 20.322-15.65 42.086-29.13 66.021-38.75 2.468-1 5.138-1.5 7.673-2.22 4.126 7.19.539 10.23-5.327 13.76-45.686 27.58-84.319 62.52-111.639 108.96-8.225 13.99-15.102 28.58-19.566 44.22-.849 3.01-1.793 6.06-2.049 9.14-.445 5.33 1.119 10.05 6.809 11.71 5.745 1.67 10.829.03 14.011-5.22 1.591-2.63 2.778-5.73 3.25-8.77 7.497-48.5 34.803-84.78 71.09-115.53 14.038-11.88 28.749-22.77 46.846-32.05.836 8.06 1.645 14.93 2.225 21.82 3.249 38.97 5.555 77.99 5.285 117.13-.05 7.47-2.197 12.24-8.468 16.63-19.148 13.45-36.651 28.95-52.846 45.88-4.355 4.54-8.63 9.2-11.475 14.89-1.227 2.45-1.861 5.13.337 7.49 2.4 2.58 4.976 1.26 7.322-.05 5.542-3.1 9.952-7.65 14.469-12 32.498-31.4 67.921-58.8 108.631-78.8 61.49-30.2 125.8-41.68 193.64-28.03 34.71 6.98 67.03 20.24 96.54 39.75 57.1 37.76 101.75 86.44 128.88 150.03 3.16 7.4 5.06 15.32 7.67 22.96 1.74 5.09 3.24 10.32 6.46 14.74 2.78 3.81 6.15 6.95 11.32 4.99 5.59-2.11 6.78-7.01 5.88-12.2-.6-3.47-2.18-6.83-3.67-10.08-7.49-16.33-15.55-32.37-24.5-47.96-1.78-3.09-3.39-6.29-5.01-9.32 61.06-54.42 144.07-40.12 190.27 10.4 10.1 11.04 16.24 24.67 21.22 38.75 2.7 7.61 5.17 15.36 8.69 22.59 3.67 7.51 8.97 10.02 13.58 7.92 5.22-2.38 8.16-9.16 6.05-16.23-1.78-5.98-4.04-12-7.18-17.36-4-6.83-3.08-11.27 2.27-17.44 40.69-47.07 90.59-79.04 151.52-92.11 61.94-13.28 122.45-6.55 180.81 17.88 84.27 35.27 147.05 95.06 194.58 171.98 7.81 12.64 13.18 26.5 18.84 40.2 1.88 4.55 3.99 9.05 6.5 13.27 2.47 4.16 6.15 7.06 11.18 4.14 4.38-2.54 5.69-6.83 4.21-11.65-.79-2.53-2.09-4.93-3.31-7.32-2.65-5.19-5.3-10.41-8.18-15.48-1.96-3.45-2.07-6.35.15-9.91 26.68-42.9 60.08-78.62 107.75-98.15 57.05-23.37 112.75-17.09 166.27 11.25 63.13 33.43 106.03 84.65 129.91 151.94 3 8.45 6.15 16.87 9.62 25.13 2.46 5.82 5.65 11.29 11.48 14.56 8.68 4.86 16.4.74 17.07-9.09.42-6.05-1.59-11.53-4.04-16.86-8.46-18.37-17.64-36.36-28.09-53.67-5.19-8.59-5.1-8.67 2.69-14.92 49.88-39.97 105.45-55.68 168.9-41.4 91.8 20.68 169.54 65.23 232.49 135.18 17.84 19.82 31.91 42.21 41.02 67.56 5.65 15.74 10.31 18.27 27.69 15.97 57.31-7.59 109.85 5.35 157.48 37.57 29.33 19.84 52.25 45.49 62.92 80.05 12.39 40.12 3.78 75.57-26.42 105.02-23.03 22.46-51.69 33.56-82.93 38.64-7.53 1.23-15.16 2.13-22.76 2.4-13.19.47-22.41 5.79-29.55 17.5-31.74 52.22-72.34 96.49-124.61 128.49-120.58 73.81-242.75 73.01-365.4 4.72-10.58-5.88-20.28-13.29-30.63-19.62-10-6.12-17.63-5.16-25.23 3.37-37.44 42.13-83.61 71.88-134.61 94.48-69.62 30.86-142.6 45.92-218.83 43.33-50.81-1.72-100.45-10.46-144.81-36.6-18.02-10.61-31.99-11.77-50.61-1.48-31.67 17.5-66.64 26.47-102.89 29.5-20.78 1.74-41.58 1.26-61.16-6.31-14-5.4-23.83-1.8-33.63 8.38-22.24 23.11-47.58 42.41-75.29 58.58-57.83 33.75-120.58 50.72-187.16 53.78-94.1 4.31-182.64-17.79-267.27-57.6-44.44-20.91-86.41-46.12-125.08-76.41-12.3-9.63-22.63-10.45-36.7-3.33-60.29 30.52-123.99 34.16-189.07 20.12-64.889-13.99-121.012-44.43-167.237-92.51-1.551-1.62-3.25-3.11-4.76-4.77-7.835-8.73-16.775-10.59-27.927-6.26-31.904 12.37-64.941 20.86-98.518 27.26-76.403 14.55-153.333 17.43-230.788 11.2-70.174-5.65-138.756-18.93-205.383-41.74-55.988-19.16-108.996-44.28-155.747-81.19-25.58-20.2-48.207-43.21-64.187-71.96-28.547-51.34-25.014-100.7 10.289-147.53 23.477-31.15 54.761-52.8 88.621-71.16 31.054-16.85 64.132-27.88 98.545-35.24 14.037-3.01 28.115-5.87 42.085-9.21 16.559-3.97 19.553-7.94 21.629-24.45 6.689-53.13 34.642-93.51 76.121-125.5 16.491-12.73 34.965-21.8 54.774-28.36 13.808-4.57 19.35-11.8 19.418-25.71.296-56.92 23.058-104.73 60.276-146.08 38.053-42.26 84.993-70.04 141.129-81.29 15.467-3.1 31.136-4.02 46.913-3.76 14.698.24 17.908-2.33 23.153-15.45 2.495-6.23 5.515-12.29 8.725-18.2 31.351-57.59 71.319-107.83 125.541-145.64 18.069-12.59 37.231-23.46 57.215-32.8 9.426-4.31 19.107-7.83 29.369-10.38"/><path fill="#fff" d="M2391.93 1171.09c8.78.16 16.45 3.88 24.14 7.22 68.84 29.73 120.7 78.12 157.77 143.05 19.34 33.87 31.16 70.64 42.44 107.56 14.02 46 29.16 91.54 47.74 135.92 5.38 12.85 9.46 26.16 12.53 39.81 4.96 22.11 3.98 43.58-4.96 64.7-7.73 18.26-16.44 35.9-27.17 52.58-25.08 38.93-46.92 79.67-66.28 121.72-2.43 5.27-4.33 10.82-6.2 16.33-1.31 3.89-1.39 8.01-.53 12 .99 4.59 3.18 8.54 8.05 9.94 5.22 1.51 8.59-1.67 11.24-5.45 2.03-2.91 3.69-6.16 5.04-9.45 1.54-3.72 3.11-7.56 3.69-11.5 5.48-37.14 24.65-68.02 44.7-98.5.46-.69 1.37-1.08 3.32-2.56 1.77 11.96 3.59 23.18 5.04 34.44 5.97 46.03 17.7 90.74 29.99 135.37 8.62 31.26 13.17 63.31 16.59 95.5 1.92 17.96-.42 35.93-1.48 53.86-2.67 44.87-5.6 89.71-13.08 134.1-3.29 19.5-6.96 38.95-13.84 57.56-4.35 11.76-2.68 21.57 6.49 30.68 26.01 25.83 35.73 59.51 44.07 93.76 1.09 4.48-.07 7.54-4.24 10.09-19.98 12.19-38.07 26.97-55.66 42.38-5.44-2.59-7.51-7.89-10.75-12.01-30.58-39.14-66.76-71.58-111.81-93.24-34.21-16.45-70.33-24.42-108.39-21.73-7.01.5-9.51-1.16-11.69-8.4-12.88-42.61-12.96-85.86-8.73-129.57 4.6-47.42 12.03-94.45 19.38-141.49 1.74-11.11 2.97-22.31-.62-33.34-5.48-16.82-19.3-22.48-35.1-14.35-10.37 5.34-17.25 14.16-23.1 23.89-12.31 20.49-17.1 43.28-20.2 66.55-1.07 8.01-1.7 16.06-2.59 24.1-.81 7.34-.31 14.49 4.19 20.62 4.86 6.62 12.3 6.14 16.35-.98 2.49-4.4 3.03-9.36 2.95-14.36-.15-9.89-.15-19.79-.5-29.66-.58-16.4 2.28-32.22 7.88-47.55 3.6-9.84 9.07-18.6 17.09-25.45 3.7-3.15 7.81-6.91 13.21-4.66 5.34 2.21 5.88 7.51 6.13 12.54.45 9.01-.13 17.98-1.55 26.88-7.81 49.24-14.63 98.6-18.69 148.35-3.36 41.1-.24 81.68 7.19 122.04 1.06 5.83 1.19 8.5-5.75 10.29-57.18 14.73-99.57 49.83-132.58 97.61-2.73 3.96-4.43 8.79-9.29 12.07a729 729 0 0 0-39.78-57.62c-4.39-5.78-4.46-13.48-5.01-20.65-2-25.49 2.55-50.1 9.72-74.39 9.28-31.42 19.51-62.56 26.63-94.61 10.07-45.28 9.94-90.73 5.96-136.72-3.45-40.01-13.82-78.67-19.62-118.21-6.27-42.77-3.11-84.18 11.76-124.71 14.58-39.73 26.63-80.12 31.73-122.29 2.75-22.76 5.38-45.55 2.14-68.5-.37-2.67-.14-5.63-1.25-7.93-2.56-5.33-6.04-10.42-12.58-10.91-7.04-.54-11.92 3.23-14.78 9.57-3.03 6.72-3.71 13.92-3.45 21.11.42 11.67.77 23.39 2.09 34.98 4.96 43.78-2.16 85.91-16.22 127.25-6.8 19.98-13.12 40.13-16.5 61.03-6.06 37.76-4.11 75.32 4.1 112.48 8.65 39.14 14.11 78.68 16.86 118.61 3.51 51.03-5.7 100.21-22.16 148.27-8.14 23.77-16.95 47.33-22.99 71.8-2.99 12.15-5.03 24.45-6.51 37.94-6.94-2.3-10.41-7.79-14.77-11.81-45.55-42.03-96.94-74.2-156.63-91.89-91.91-27.24-178.47-16.96-258.15 38.48-18.89 13.14-35.48 28.92-50.7 46.17-2.61 2.95-4.39 6.81-8.36 8.43-57.8-81.1-156.29-94.62-228.93-36.06-2.56-3.64-5.11-7.24-7.63-10.87-32.87-47.16-73.08-86.31-124.2-113.36-6.77-3.59-6.94-7.19-4.96-13.84 7.86-26.32 18.14-51.65 29.36-76.66 18.39-41 38.32-81.22 60.79-120.13 41.03-71.08 92.3-133.37 155.8-185.92 58.83-48.7 119.01-95.75 177.43-144.96 26.12-21.99 51.67-44.59 76.71-67.83 69.59-64.57 115.1-143.85 144.65-233.33 14.63-44.32 23.23-89.49 23.3-136.17.01-8.59 2.25-14.73 9.24-20.73 30.46-26.2 49.2-60.21 62.44-97.62 2.81-7.92 2.34-15.06-4.22-20.94-5.94-5.33-13.55-5.57-22.38.01-10.28 6.49-20.79 11.89-35.6 13.74 10.8-12.19 19.11-23.11 23-36.64.88-3.07 3.69-3.59 6.46-3.84 19.22-1.78 36.86-7.96 52.24-19.7 4.48-3.429 7.11-1.649 10.41 1.22 6.45 5.6 13.14 10.91 19.6 16.5 50.12 43.34 107.48 71.71 173.12 81.66 30.99 4.7 49.78 20.84 63.45 49.08 20.83 43 31.73 87.68 33.05 134.93.46 16.56-1.09 33.23-2.43 49.79-2.75 34.16-3.4 68.2 2.52 102.13 2.43 13.9-.99 27.76-1.13 41.65-.05 6.26-.74 12.53 1.63 18.65 1.76 4.49 4.04 8.34 9.28 8.35 5.11.01 8.06-3.6 9.87-7.94 2.09-5.03 2.74-10.36 2.79-15.83.14-13.14-2.6-25.88-4.8-38.72-6.97-40.66-7.44-81.26.42-121.95 9.72-50.3 4.92-99.27-15.17-146.56-.31-.66-.07-1.55-.07-3.25M716.34 723.252c-1.955 14.362-4.058 27.551-5.515 40.807-3.667 33.511-6.27 67.131-7.268 100.804-1.591 53.901-4.301 107.829-2.966 161.757 2.009 81.45 9.007 162.41 31.661 241.16 8.307 28.87 16.519 57.83 32.754 83.73 7.889 12.58 15.602 25 31.217 32.73-19.687 10.53-37.986 18.89-57.39 23.68-40.939 10.13-81.986 19.97-123.816 25.83-25.458 3.56-51.119 2.25-76.713 1.44-15.737-.5-31.419-.63-46.967 2.6-5.839 1.22-11.138 3.43-16.127 6.5-2.279 1.4-4.828 3.44-3.641 6.41 1.065 2.67 4.032 3.48 6.877 3.25 3.56-.29 7.133-.74 10.666-1.32 15.116-2.51 30.313-4.02 45.618-2.73 49.758 4.2 98.586-1.41 146.915-13.23 15.197-3.72 30.664-6.38 45.766-9.48 2.158 3.25-.323 4.63-1.429 6.14-21.4 28.94-41.128 59.01-57.512 91.04-14.091 27.54-34.615 48.94-58.779 67.4-6.068 4.64-12.419 8.94-17.287 14.93-3.263 4.02-5.34 8.53-2.508 13.6 2.966 5.32 8.225 5.05 13.134 4.25 10.235-1.67 18.136-7.79 24.906-15.09 13.444-14.51 25.796-29.96 36.219-46.81 8.496-13.74 16.478-27.8 24.421-41.88 15.251-27.03 31.945-53.11 50.54-77.96 11.745-15.68 25.594-28.32 44.634-35.41 15.494-5.78 29.814-14.6 44.998-21.3 20.456-9.03 32.228-24.93 38.714-45.67 7.147-22.86 10.356-46.46 12.918-70.11 3.29-30.37 5.583-60.84 8.239-91.27 1.066-12.11.944-12.29 13.188-15.73 23.167-6.5 46.832-7.6 70.767-6.82 22.101.71 43.586 5.97 65.536 7.69 47.29 3.68 92.22-3.4 133.39-28.47 10.73-6.54 21.83-12.48 33.55-17.17 12.17-4.87 24.73-8.67 37.81-9.07 28.28-.89 56.55-2.78 84.84-1.29 15.34.81 30.51-.37 45.73-1.51 10.02-.75 10.28-.32 10.07 9.75-.35 16.91 7.65 29.15 21.07 38.34 5.54 3.81 11.65 6.83 17.08 10.78 9.1 6.63 10.76 13.46 5.64 20.47-5.61 7.69-15.94 9.59-23.98 4.14-2.56-1.74-4.58-4.28-6.94-6.34-10.16-8.89-20.57-7.87-28.97 2.81-1.39 1.75-2.71 3.61-3.71 5.61-19.28 38.6-24.77 77.66-3.21 117.33 2.07 3.79 2.77 7.03 1.8 11.37-8.98 39.81-11.5 79.97-4.8 120.4 2.2 13.26-1.03 25.99-2.85 38.77-5.84 41.29-.83 81.38 11.01 121.09 23.76 79.67 57.33 154.82 102.4 224.74 3.11 4.83 4.93 8.41.28 13.93-54.45 64.75-90.6 139.85-122.34 217.43-10.72 26.2-19.6 53.04-28.07 80.02-5.3 16.9-5.19 16.91-21.22 11.03-44.22-16.21-89.75-21.67-136.51-16.37-42.89 4.87-83.1 18.41-121.06 38.8-5.88 3.16-11.72 6.41-17.35 9.51-3.67-2.73-2.4-6.14-2.42-9.08-.29-53.55-5.31-106.79-10.56-160-3.08-31.29-6.33-62.56-9.826-93.81-4.059-36.34-15.67-70.97-24.448-106.24-1.241-4.97-5.933-10.53-1.079-15.02 5.151-4.76 11.961-2.43 17.881-.36 33.102 11.46 62.702 28.9 88.502 52.64 20.59 18.95 37.82 40.84 54.6 63.09 18.66 24.77 37.66 49.25 59.73 71.15 9.93 9.84 20.67 18.69 32.8 25.67 9.25 5.33 16.12 5.16 19.41.02 3.17-4.96.89-12.19-6.87-18.45-6.62-5.34-13.73-10.15-20.97-14.63-19.34-11.94-35.82-26.85-49.7-44.89-18.64-24.2-36.56-48.96-56.72-71.95-29.92-34.13-66.08-59.09-108.38-75.41-13.94-5.38-28.638-7.5-43.066-10.71-31.177-6.96-61.341-17.19-91.574-27.21-22.411-7.42-45.389-10.74-68.919-10.64-14.82.05-29.666-.15-44.473.52-39.037 1.78-75.648-7.47-111.045-23.12-40.224-17.79-77.32-40.63-108.214-71.99-45.159-45.85-93.164-88.34-142.949-129.04-27.846-22.76-52.307-49.34-75.662-76.68-43.973-51.45-63.445-111.91-62.636-179.05.35-29.37 8.643-56.85 25.674-81.07 37.69-53.58 81.42-101.59 132.891-142.3 1.294-1.02 2.481-2.64 5.272-1.89.769 10.86 1.335 21.89 2.401 32.87 1.685 17.43 3.789 34.82 5.569 52.24 2.872 28.28 2.279 56.53-.755 84.77-2.455 22.86-3.331 45.73 1.834 68.4 1.604 7.01 3.303 14.08 7.794 19.92 3.371 4.38 7.389 8.21 13.632 5.88 5.745-2.15 6.365-7.33 5.853-12.34-.553-5.33-1.699-10.64-3.183-15.79-7.767-27.06-10.679-54.59-8.724-82.66 2.225-31.96.418-63.7-3.641-95.46-5.272-41.19-.378-81.79 11.853-121.113 10.653-34.227 31.891-62.209 63.701-78.877 55.287-28.994 102.267-67.913 145.121-112.644 14.604-15.239 30.3-29.412 45.524-44.057 2.845-2.67 5.448-5.731 10.342-7.727"/><path fill="#fff" d="M1375.09 299.835c-2.32-4.639-.24-7.579 3.33-10.357 27.56-21.482 58.13-35.13 93.39-37.975 49.25-3.965 94.26 8.927 136.75 32.743 21.17 11.867 42.58 23.249 65.49 31.38 18.84 6.689 38.15 10.398 58.19 6.001 17.87-3.924 27.52-17.396 24.72-34.253-2.71-16.29-26.8-27.577-40.51-18.92-3.68 2.32-5.99 5.61-4.67 10.182 1.11 3.83 3.91 5.947 7.93 6.109 3.58.134 7.2-.257 10.74.188 4.14.526 8.03 2.077 8.43 7.134.35 4.504-1.84 7.862-5.83 9.75-4.92 2.333-10.18 3.291-15.67 3.358-16.53.216-31.92-4.531-46.95-10.694-17.47-7.174-34.13-15.98-50.65-25.096-28.44-15.711-58.05-28.239-90.35-33.835-50.55-8.766-98.23.296-144 22.21-3.13 1.497-5.81 4.329-10.54 3.709-1.47-13.081-1.58-26.499-5.72-39.256-.89-2.751-.34-5.3 1.21-7.687 4.9-7.525 9.77-15.077 14.67-22.588 2.89-4.41 6.07-3.925 10.14-1.241 6.36 4.181 12.85 8.118 20.23 10.532 18.96 6.23 34.13 2.333 47.44-12.514 6.16-6.878 8.75-14.497 5.8-23.559-1.39-4.248-2.56-8.078 1.12-12.367 15.23-17.787 30.82-35.183 50.62-48.102 8.25-5.38 16.83-10.344 27.02-11.193 3.04 5.151-.27 9.763-.74 14.51-1.03 10.478 2.48 18.138 10.13 21.483 7.2 3.142 14.98 1.362 21.68-6.217 10.13-11.449 20.02-23.074 31.55-33.174 18.9-16.56 39.93-28.86 64.97-33.687 10.02-1.929 19.72-1.052 29.26 1.86 12.14 3.71 15.93 9.265 15.2 21.901-.74 12.987-6.61 24.139-13.23 34.914-3.52 5.731-7.68 11.058-11.37 16.709-4.49 6.877-5.96 14.227-1.18 21.495 4.96 7.566 12.78 7.417 20.58 6.419 2.17-.283 4.24-1.375 6.35-2.117 12.62-4.45 12.62-4.45 20.47 6.257 5.53 7.539 13.91 9.939 22.65 6.258 2.45-1.039 4.69-2.63 6.99-4.032 21.14-12.946 38.75-12.056 58.37 3.02 2.13 1.632 3.98 3.628 6 5.408 13.01 11.436 24.15 9.588 32.74-5.826 9.79-17.571 14.75-36.545 15.66-56.639.56-12.541-1.35-24.786-6.41-39.094 47.36 10.573 89.32 23.977 108.85 71.837 5.41 13.256 7.58 26.728 3.63 40.807a29.2 29.2 0 0 0-1.06 6.635c-.47 10.856 5.53 18.138 16.28 19.311 4.44.486 8.98.162 13.47.081 31.02-.486 52.79 14.2 67.64 40.537-2.49 4.747-7.09 3.898-10.67 5.165-20.65 7.296-36.03 19.702-41.85 41.926-3.12 11.895-1.44 23.263 3.01 34.267a192 192 0 0 0 11.13 23.006c10.41 18.34 11.2 37.544 6.03 57.421-3.72 14.335-8.78 28.279-11.92 42.803-6.07 28.036-2.87 54.454 11.75 79.295 2.73 4.639 5.24 9.439 8.21 13.93 25.82 39.108 28.64 81.466 16.95 125.482-7.07 26.594-18.49 51.353-35.79 75.64-5.04-13.553-8.19-25.541-8.25-38.164-.04-8.523.77-17.059.85-25.582.1-10.801-4.14-17.005-12.07-18.421-8.58-1.524-15.98 3.102-18.92 13.391-4.64 16.291-3.63 33.013-.93 49.465 4.75 28.926 16.4 55.048 34.65 77.973 13.15 16.506 27.12 32.378 40.42 48.763 11.49 14.146 19.98 29.628 21.94 48.346 4.2 40.537-24.79 76.961-65.32 81.344-4.02.431-8.08.391-12.1.809-13.63 1.416-19.19 5.853-22.49 19.231-2.08 8.4-4.26 16.52-10.3 23.06-7.85 8.48-17.24 14.28-28.62 16.71-3.52.74-7.18 1.08-10.5 2.34-11.63 4.45-14.04 17.62-4.8 26.03 2.29 2.09 5.03 3.83 7.81 5.22 19.64 9.79 40.02 15.95 62.35 12.18 1.68-.29 3.46-.04 7.21-.04-17.84 27.74-34.37 54.24-67.07 64.62-13.58 4.31-17.79 10.77-16.95 25.26.53 9.11.18 17.93-3.48 26.43-9.61 22.32-34.98 28.45-53.28 12.38-17.96-15.78-29.84-35.75-37.36-58.31-8.59-25.8-11.25-52.62-12.97-79.57-.29-4.47-.23-8.98-.23-13.48-.02-5.84-1.37-11.65-8.04-11.91-6.74-.26-8.33 5.75-9.01 11.34-.48 4.01-1.08 8.07-.89 12.07 1.18 25.16 3.64 50.19 9.95 74.68 8.38 32.5 25.21 60.28 47.81 84.79 7.7 8.34 8.55 11.74 2.65 21.05-7.39 11.65-16.5 20.93-31.81 22.03-13.58.99-18.62 6.34-21.63 19.87-6.71 30.1-34.99 51-65.09 44.73-19.41-4.05-32.08.2-46.29 14.24-42.37 41.82-105.49 40.48-146.23-.78-9.52-9.65-14.68-21.28-17.51-34.28-1.69-7.73.04-13.57 6.61-18.82 11.93-9.54 22.46-20.68 32.29-32.41 9.58-11.43 17.67-23.79 23.75-37.44 11.24-25.27 11.61-50.44-.91-75.42-4.42-8.84-8.95-17.62-13.32-26.48-8.35-16.92-6.77-33 4.26-48.23 5-6.92 10.17-13.72 14.96-20.79 14.83-21.91 16.37-46.01 11.39-71.131-.17-.876-.32-1.78-.62-2.616-2.37-6.824-6.61-10.128-11.45-8.968-5.03 1.214-7.91 6.123-6.47 12.946 1.4 6.639 2.32 13.259 2.59 19.999.65 15.86-3.64 30.17-13.09 42.95-4.55 6.14-9.05 12.31-13.41 18.58-14.06 20.19-15.92 41.5-5.45 63.75 4.02 8.52 8.12 17.03 12.63 25.3 13.24 24.34 10.89 47.16-5.3 69.38-20.14 27.62-44.14 51.11-73.94 67.79-26.21 14.67-54.28 20.62-84.41 13-32.15-8.13-49.45-29.89-49.19-66.24.09-12.58 3.19-24.85 8.53-36.34 4.67-.18 7.84 2.71 11.54 4.08 22.98 8.58 49.69-2.4 60.1-24.78 7.93-17.05 4.25-35.87-9.62-49.43-6.52-6.36-14.54-10.46-22.16-15.21-15.03-9.4-15.83-17.76-2.71-29.58 16.36-14.73 32.84-29.32 49.35-43.86 9.17-8.06 17.53-16.82 23.37-27.64 10.7-19.83 10.53-39.516-1.4-58.841-4-6.487-9.06-12.393-11.35-19.81-2.59-8.361.98-14.645 8.98-16.385 9.03-1.969 13.7 2.023 13.17 11.422-.12 2.225-1.02 4.396-1.17 6.621-.28 4.316.75 8.254 5.34 9.764 5.11 1.686 8.66-1.011 11.24-5.124 9.52-15.145-.9-38.448-18.51-41.428-25.55-4.342-44.18 16.83-36.43 41.508 2.31 7.377 6.75 13.621 10.96 20.013 11.47 17.463 11.57 33.27-.99 49.88-14.41 19.07-34.13 31.8-55.47 41.66-8.04 3.71-17.48 4.29-26.2.03-7.81-3.82-12.68-9.82-13.86-18.59-.87-6.35.59-10.81 7.21-14.01 18.84-9.07 35.14-21.66 48.07-38.284 2.46-3.169 4.84-6.54 6.46-10.168 3.09-6.904 1.43-14.011-3.68-18.421-5.29-4.571-13.88-4.908-19.92 0-3.77 3.075-6.68 7.215-10.02 10.856-22.64 24.667-49.98 39.117-84.15 38.557-25.53-.43-43.37-12.46-53.73-35.806-11.13-25.137-11.54-51.46-8.64-78.094 1.51-13.863 4.18-27.524 10.65-40.807 3.87.377 5.59 3.83 8.13 5.853 20.41 16.209 45.3 9.601 54.71-14.767 4.99-12.933 5.11-26.351 2.6-39.836-2.56-13.782-7.37-26.903-13.22-39.526-9.58-20.646-7.65-40.038 4.37-58.904 2.65-4.167 4.97-8.537 7.65-12.69 18.17-28.117 21.55-58.419 13.95-90.542-3.95-16.695-10.45-32.459-16.62-48.358-9.42-24.315-10.77-48.926-3.19-73.941.78-2.562 1.29-5.448 2.83-7.485 2.31-3.047 6.14-4.504 9.36-1.968 18.03 14.159 36.88 9.857 55.81 2.778 5.29-1.983 10.22-4.909 17.03-8.24-3.36 17.963-4.45 34.469-4.91 51.015-.1 3.736-2.36 5.664-5.26 7.121-12.16 6.136-14.88 17.126-15.15 29.371-.46 19.824.85 39.499 5.04 58.932 3.41 15.791 5.62 31.852 10.96 47.185 1.47 4.235 2.5 8.833 4.91 12.488 12.93 19.567 6.52 41.818 9.1 62.788.3 2.441-1.37 4.073-3.12 5.623-14.22 12.515-15.13 29.035-12.56 45.891 2.25 14.7 7.53 28.657 14.81 41.711 18.93 33.97 52.16 50.516 95.75 46.282 32.55-3.156 57.92-20.43 79.76-43.598 9.71-10.303 12.64-11.099 25.46-5.624 10.51 4.491 19.15 11.598 27.17 19.54 10.21 10.115 20.08 20.606 31.48 29.439 27.73 21.51 58.74 31.543 93.4 22.939 37.6-9.318 61.41-34.064 71.84-71.217 2.91-10.37 4.01-21.347-3.4-31.003-2.47-3.223-1.28-6.85-1.05-10.41.82-12.555 1.59-25.11 2.25-37.665.21-4.019.38-8.065-.88-12.029-1.06-3.345-3.07-5.57-6.58-5.799-4.26-.283-6.66 2.427-7.59 6.19-.63 2.575-.9 5.367-.69 8.01 1 12.663-1.62 25.096-2.01 37.651-.16 5.246-1.84 8.186-7.44 9.211-4.33.796-8.82 2.427-12.49 4.814-9.4 6.109-17.84 3.48-26.33-1.631-15.91-9.589-29.79-21.645-42.21-35.359-6.93-7.647-13.27-15.832-19.92-23.735-11.42-13.58-24.24-25.298-41.8-30.625-1.08-4.423 1.35-7.579 3.16-11.773 14.41 15.063 32.58 20.592 52.05 23.559 24.05 3.668 48.02 6.514 72.32 2.117 13.52-2.441 24.09-9.062 32.47-19.85 10.45-13.486 16.53-28.778 19.06-45.46 4.83-31.798 2.54-63.638-.32-95.436-.39-4.437-1.74-8.806-2.94-13.135-5.29-19.082-17.15-30.922-37.1-34.442-19.91-3.52-39.96-5.731-60.06-7.754-2.22-.229-4.45-.472-8.51-.904 12.95-6.311 25.09-6.567 37.24-5.664 9.38.702 18.69 2.428 28.04 3.493 2.07.229 4.66.567 5.78-2.104 1.09-2.575-.61-4.328-2.28-5.758-3.73-3.182-7.62-6.149-12.61-10.114 11.99-3.951 23.78-5.448 34.57-12.568 2.86 7.97 1.98 14.699 2.38 21.239.18 3.142-.07 6.338.45 9.4.77 4.355 3.48 7.39 8.04 7.821 4.72.445 7.46-2.549 9.04-6.608 1.84-4.747.9-9.777 1.11-14.685.42-9.939-2.89-19.891-1.92-29.48.97-9.709 10.66-16.074 14.75-25.123 7.73-17.1 11.53-34.887 11.39-53.591-.02-4.073-.36-8.078-2.22-11.814-1.58-3.169-4.18-4.585-7.66-4.288-3.64.31-5.83 2.603-6.34 5.947-.55 3.52-.44 7.134-.5 10.721-.31 20.619-4.23 40.214-16.56 57.313-10.69 14.834-24.79 24.126-44.68 26.89 2.19-11.948 6.05-22.359 6.98-33.336 1.79-21.293-2.63-41.076-13.59-59.363-3.25-5.421-7.27-10.316-12.85-13.58-4.16-2.427-8.59-3.641-12.21.621-3.83 4.517-1.05 8.212 2.22 11.719 19.2 20.74 24.31 45.23 19.29 72.484-1.66 9.008-6.05 16.816-9.84 24.948-1.89 4.032-4.43 5.125-8.55 3.857-27.54-8.455-54.2-2.522-80.77 4.936-6.49 1.82-12.98 3.627-19.49 5.313-11.57 2.994-22.56 3.911-33.37-3.763-6.68-4.746-9.29-2.616-10.21 5.678-.49 4.369 1.16 8.887-1.35 14.24-10.75 0-21.91-.134-33.06.068-4.82.081-5.79-2.225-6.14-6.514-1.63-19.365-1.78-19.405-18.78-11.246-12.57 6.041-25.45 8.455-39.12 4.099-4.26-1.348-8.77-1.982-13.03-3.317-21.95-6.891-43.43-4.72-64.68 3.034-7.16 2.616-14.34 5.178-22.47 8.105.7-16.911 4.95-32.338 9.62-47.631.85-2.791 3.54-5.07 5.54-7.457 16.96-20.31 39.6-30.14 64.79-35.723 14.73-3.264 28.9-2.954 43.75.35 87.13 19.379 161.96-6.554 228.06-63.435a42 42 0 0 0 2.91-2.792c3.79-3.965 5.81-8.55 1.5-13.013-3.75-3.871-8.36-2.414-12.23.418-3.62 2.643-7 5.623-10.4 8.55-38.63 33.214-83.74 51.635-133.87 58.378-27.13 3.641-53.77-.054-80.07-6.702-18.71-4.734-37.29-9.979-56.02-14.578-40.12-9.831-80.66-12.582-122.43-6.055-2.23-15.104 1.07-29.695.89-44.3-.02-2.4 1.45-4.072 3.32-5.529 23.38-17.989 48.47-33.012 77.88-38.11 30.62-5.313 59.89.756 87.23 15.374 10.68 5.704 20.8 12.447 31.24 18.583 29.17 17.167 60.68 26.674 94.47 28.508 3.13.175 6.3.135 9.43-.094 4.68-.338 7.55-2.954 7.74-7.687.19-4.801-2.9-7.363-7.26-8.307-2.17-.472-4.46-.337-6.7-.459-32.91-1.82-63.47-11.22-91.61-28.413-7.66-4.68-15.17-9.643-23.01-14.012-56.52-31.569-112.27-29.493-167.22 4.181-4.45 2.751-8.32 6.675-13.67 8.145"/><path fill="#fff" d="M1314.25 432.249c1.63-37.705 2.5-75.397 1.24-113.17-1-29.573-15.52-52.081-49.22-60.495-9.62-2.401-19.43-3.547-29.3-4.046-3.08-.148-6.27.324-9.25 1.133-2.59.701-5.01 2.252-4.94 5.569.05 2.468 1.43 4.208 3.43 5.448 4.31 2.684 9.19 3.372 14.14 3.871 11.18 1.105 22.24 2.643 32.77 7.066 15.56 6.527 24 18.044 25.86 34.752 3.25 29.156.51 58.392 1.36 87.575.15 4.908-1.76 7.457-6.25 8.819-4.88 1.47-6.5 5.017-6.19 10.006.23 3.56-.18 7.188-.52 10.762-.64 6.634.44 12.379 8.01 14.888-14.9 11.665-25.93 8.563-30.4-8.604-4.3-16.506-7.19-33.363-6.69-50.598.15-4.935.34-9.952-.34-14.807-.97-7.025-4.38-9.561-11.02-6.486-5.07 2.36-6.45-.324-8.56-2.953-4.91-6.123-6.7-13.607-8.76-20.97-1.1-3.884-2.16-7.768-3.44-11.598-1.12-3.317-3.75-5.461-7.12-5.097-4.05.445-6.24 3.654-6.39 7.538-.14 3.533.33 7.161 1.08 10.64.93 4.369 2.29 8.671 3.7 12.933 1.27 3.816 2.86 7.538 4.6 12.069-13.5 6.595-27.98 8.928-42.41 11.436-3.52.607-7.18.795-10.53 1.915-3.91 1.308-7.85 3.803-7.16 8.536.68 4.68 4.73 6.298 9.17 6.095 4.92-.229 9.86-.566 14.74-1.254 6.18-.89 12.28-2.184 19.24-3.452 1.9 13.135-.16 25.515-2.12 37.732-4.26 26.648-11.21 52.675-19.2 78.432-1.32 4.275-2.44 8.644-3.27 13.027-.62 3.236-.08 6.729 3.38 7.983 3.43 1.227 5.96-1.254 7.9-3.83a43.4 43.4 0 0 0 7.1-14.416c4.08-14.699 8.21-29.384 12.37-44.07 1.95-6.837 1.99-6.824 10.91-9.224-2.02 12.164-4.22 24.004-5.88 35.912-1.1 7.996-1.98 16.088-2.03 24.139-.12 18.69 12.26 25.406 28.5 15.831 1.1-.647 2.36-1.011 3.85-1.645.97 8.712 2.03 17.086 2.8 25.488.49 5.34-2.91 9.399-5.59 13.404-15.9 23.694-35.29 44.246-57.88 61.588-23.93 18.381-50.35 32.932-76.89 47.105-33.7 18.017-63.03 41.4-88.04 70.124-66.694 76.557-131.366 154.813-195.755 233.339-31.661 38.611-60.842 79.001-90.994 118.701-2.562 3.38-5.434 6.54-9.938 11.92-.863-15.62-1.968-28.41-2.225-41.24-1.577-76.408-1.78-152.816 2.724-229.144 2.347-39.876 3.371-79.955 12.5-119.144.405-1.753.809-3.506 1.039-5.286 1.78-13.634 9.318-22.993 19.579-32.123 48.666-43.288 97.413-86.468 146.766-128.961 36.8-31.691 61.571-72.417 82.229-115.624 32.365-67.738 60.585-137.174 82.785-208.998 4.37-14.146 9.6-27.996 16.8-41.077 6.05-10.977 14.98-16.263 27.22-16.344 36.83-.229 73.67-1.78 110.47 1.308 16.99 1.43 34.05 2.252 51.04 3.668 15.33 1.281 29.84 5.988 44.31 11.004 20.27 7.026 31.32 21.51 35.6 41.953 2.13 10.155 3.09 20.417 3.25 30.788.75 49.923-3.47 99.711-3.94 149.594-.03 2.684-.22 5.448-.93 8.01-.84 3.061-3.57 3.749-6.43 3.574-3.33-.202-2.83-2.953-2.81-4.963.23-13.027.62-26.054.96-39.081.81-31.893 1.69-63.799 2.37-95.692.27-12.677-1.82-25.029-5.96-37.058-5.11-14.834-14.94-24.072-30.48-27.308-22.01-4.572-44.1-8.429-66.56-9.791-4.01-.243-8.08-.836-11.97.877-3.12 1.375-5.32 3.546-5.23 7.093.1 3.506 2.21 5.866 5.52 6.797 2.13.593 4.41.822 6.63.876 21.2.594 41.86 5.165 62.72 8.28 14.63 2.185 23.11 10.06 26.4 24.706 2.2 9.763 3.41 19.54 3.16 29.384-1.26 47.159-2.88 94.318-4.36 141.476-3.73 3.736-6.81 10.088-13.25 3.385M1974.07 1200.47c.72 34.53-8.69 65.09-16.74 95.93-27.68 106.03-85.35 192.85-168.05 263.83-22.51 19.31-45.62 37.82-68.81 56.27-54.13 43.03-107.55 86.91-159.87 132.16-24.41 21.1-49.3 41.6-71.92 66.81-1.26-2.11-1.97-3.19-2.59-4.29-31.86-56.83-61.05-114.93-82.99-176.42-12.13-33.98-19.69-69.03-22.74-105-.46-5.34-.07-10.75-.07-16.84 6.72 3.67 8.31 9.16 8.04 16.24-.53 14.05 2.28 27.61 6.66 40.96 12.76 38.86 55.96 55.09 92.36 40 19.39-8.04 34.23-21.22 44.05-39.79 2.66-5.03 5.45-6.44 11.49-6.1 129.05 7.07 236.98-35.56 319.25-137.31 39.28-48.57 65.83-103.59 80.77-164.22 1.74-7.04 4.11-13.31 9.74-18.6 11.84-11.18 16.08-26.54 21.42-43.63"/><path fill="#fff" d="M876.861 949.955c0 15.711 1.038 30.059-.202 44.192-3.412 38.943-4.895 77.983-6.567 117.013-2.36 55.21-5.057 110.37-13.647 165.04-3.061 19.5-6.931 38.87-13.444 57.62-2.522 7.27-5.542 14.27-10.423 20.24-8.293 10.18-19.31 12.69-31.244 7.27-13.336-6.07-22.101-16.56-28.196-29.55-10.141-21.6-16.937-44.41-24.084-67.09-10.154-32.26-14.631-65.65-19.539-98.95-.971-6.63.553-11.75 4.517-17.37 15.009-21.28 29.72-42.78 43.731-64.72 28.816-45.12 61.813-87.13 94.796-129.177 1.079-1.335 2.374-2.495 4.302-4.518M1435.26 767.794c-8.53 11.516-5.55 19.473 8.21 21.347 12.84 1.74 23.79-3.317 33.39-11.395 8.69-7.309 14.94-16.681 21.21-26.013 5.51-8.186 10.87-16.52 18.47-23.074 4.01-3.452 7.32-3.681 13.04-2.144 12.23 3.277 20.2 10.532 28.62 19.378 15.5 16.331 32.29 15.981 48.34.257 8.24-8.078 17.28-12.474 28.81-12.016 3.11.122 6.45-.027 9.32-1.052 19.06-6.85 33.75 1.888 47.64 13.162 3.81 3.088 7.11 6.905 10.13 10.788 17.48 22.373 36.44 43.194 61.22 58.851-9.84 2.104-12.58 1.982-23.09-2.185-5.82-2.306-11.4-5.246-17.07-7.97-4.22-2.022-7.94-1.483-10.69 2.387-2.91 4.1-1.15 7.849 1.91 10.843 2.2 2.157 4.89 3.964 7.62 5.407 26.26 13.715 53.08 15.212 80.44 3.385 6.17-2.67 12.31-5.434 18.57-7.875 5.53-2.158 7.71.728 7.14 5.866-1.45 13.216-6.05 25.326-13.99 35.979-20.22 27.092-53.44 38.407-86.29 29.897-16.47-4.261-30.75-12.474-43.37-23.586-8.76-7.713-17.02-15.994-25.42-24.098-11.11-10.708-23.32-19.716-38.18-24.517-4-1.294-7.35-2.131-5.86-7.983.92-3.587-1.67-6.797-5.54-8.199-3.99-1.457-7.15.283-9.61 3.047-2.38 2.657-4.26 5.759-6.26 8.725-12.28 18.206-27.95 32.608-47.21 43.275-22.53 12.474-46.14 13.742-70.48 7.404-12.48-3.25-22.93-10.236-31.34-20.013-13.3-15.454-20.24-33.754-22.98-53.726-.86-6.27-.28-12.568 2.04-18.583 1.75-4.666 4.33-7.956 11.26-5.569M1142.13 156.054c-1.05-7.174 2.39-12.676 5.2-18.097 8.49-16.331 17.21-32.54 26.08-48.656 5.88-10.693 13.69-19.958 22.28-28.602 8.67-8.725 19.2-13.513 31.34-13.472 49.53.121 96.35 9.52 136.49 41.13 11.29 8.887 22.84 17.437 34.4 25.96 4.26 3.142 7.55 5.826 4.52 12.042-2.96 6.028.45 11.477 4.22 16.008 6.93 8.334 15.17 15.292 24.46 20.889 4.3 2.589 8.95 4.045 14.13 3.061 2.41-.459 5.15-2.32 6.97 1.254 1.81 3.547 1.87 6.864-.85 9.952-6.57 7.431-14.09 12.38-24.73 10.384-6.76-1.268-12.88-3.924-18.54-7.606-24.1-15.656-47.99-31.596-69.64-50.624-2.58-2.266-5.34-4.059-6.64-7.983-3.01-9.076-5.65-10.263-14.72-6.19-11.63 5.232-23.65 8.388-36.31 9.102-6.04.338-11.93 1.942-16.03-5.785-2.62-4.936-9.01-3.263-11.53 2.36-1.44 3.237-1.92 6.905-2.94 10.343-1.28 4.289-2.27 8.725-4.09 12.785-6.04 13.485-10.14 16.061-24.78 14.658-24.64-2.346-49.33-2.252-74.02-2.265-1.67-.014-3.36-.405-5.27-.648M1795.21 1379.16c-41.88 61.63-149.85 115.82-236.53 101.39-1.78-4.92 2.04-8.34 3.86-12.05 3.31-6.74 2.55-12.09-3.59-16.48-29.69-21.28-61.58-33.01-98.57-22.82-14.71 4.06-14.97 4.05-17.81-11.35-3.35-18.17-4.32-36.52-3.5-55.01.27-6.12 2.17-8.86 8.81-8.54 20.56.99 40.09-4 58.99-11.58 5.57-2.24 8.62-2.75 10.56 4.48 12.38 46.06 68.3 78.58 112.73 80.21 39.92 1.47 73.83-12.8 102.78-39.39 5.65-5.2 10.64-6.99 17.87-5.32 14.32 3.32 28.46.66 44.4-3.54"/><path fill="#fff" d="M1582.37 746.933c-9.5.256-23.76-11.18-27.92-22.548-.92-2.508-1.2-5.259-2.08-7.795-2.6-7.484-4.27-7.821-9.4-1.024-3.42 4.544-6.01 2.629-8.53-.23-4.41-5.003-5.72-15.872-1.04-21.536 25.39-30.787 28.5-68.803 35.37-105.685 1.21-6.541.89-13.257 3.85-19.649 3.82-8.239 8.85-11.732 18.46-12.204 21.46-1.065 27.18 6.702 30.21 25.703 4.07 25.501 12.16 49.505 23.58 72.538 1.8 3.601 6 6.945.65 11.504-2.51 2.144.22 5.057 2 6.864 3.76 3.829 8.14 7.066 11.73 11.044 11.77 13.081 8.6 27.389-7.24 34.725-7.89 3.655-16.37 4.666-24.72 6.136-10.91 1.915-20.55 5.866-28.36 14.038-4.43 4.626-10.03 7.471-16.56 8.119"/><path fill="#fefefe" d="M1370.79 405.036c.46-19.581-3.41-17.963 17.58-19.527 35.52-2.657 70.57 1.349 105.1 9.939-.36 2.805-2.55 3.479-4.69 4.086-20.89 5.907-37.56 18.516-52.77 33.363-7.37 7.188-14.31 14.834-21.84 21.846-11.63 10.816-24.79 18.745-42.33 20.687 5.16-9.763 10.8-17.747 14.17-26.93 4.26-11.611 6.06-23.398 3.76-35.602-.77-4.126-2.73-7.821-7.29-8.685-4.74-.89-7.53 1.848-9.09 6.082-4.79.203-3.55-2.589-2.6-5.259"/><path fill="#fae857" d="M1468.46 1483.68c-33.9 7.1-48.48 52.19-29.33 77.67.95 12.32-5.53 18.32-17.02 20.06-12.22-12.31-14.94-28.22-16.02-44.39-1.38-20.69 3.25-40.53 14.44-57.85 17.34-26.88 42.68-38.61 74.71-35.21 5.24 2.52 4.61 6.99 3.99 11.58-3.09 22.68-6.11 25.47-30.77 28.14"/><path fill="#fae958" d="M1456.86 664.078c-17.75-18.502-17.73-18.489.89-32.285 7.56-5.61 15.09-11.273 22.55-17.032.94-.728 1.33-2.184 2.19-3.695-9.71-8.954-21.61-14.443-32.29-21.698-2.97-2.009-6.08-3.816-9.23-5.556-3.81-2.117-4.93-4.531-2.21-8.536 3.76-5.529 7.07-11.355 11.45-18.475 27.58 17.504 54.55 34.617 83.35 52.89-26.7 18.933-51.77 36.707-76.7 54.387"/><path fill="#f5bf33" d="M1920.44 1280.17c-7.68-.97-12.33-6.41-19.41-6.21 1.32 6.79 7.18 7.86 11.51 9.41 6.02 2.16 6.31 5.17 4.22 10.18-2.07 4.97-3.56 10.17-5.58 15.15-3.15 7.76-3.29 7.79-11.56 4.03-6.52-2.97-12.91-6.24-19.49-9.12-2.16-.94-4.51-3.52-8.23.64 7.67 5.51 15.98 9.34 24.37 13.08 9.85 4.39 10.07 4.54 5.23 14.53-3.29 6.8-4.61 16.88-11.18 19.17-6.76 2.36-13.11-5.95-19.62-9.55-8.97-4.96-17.6-10.55-26.98-16.24 1.9-5.47 5.81-8.52 9.13-11.86 15.81-15.89 32.94-30.53 46.22-48.85 1.54-2.12 3.75-3.95 5.99-5.34 5.78-3.6 12.12-4.07 17.78-.3 5.8 3.86.91 8.95.32 13.44-.34 2.55-1.69 4.99-2.72 7.84"/><path fill="#f6b82b" d="M1422.11 1581.43c7.08-5.49 14.82-10.43 17.02-20.07 3.23 2.36 6.31 5.03 9.75 7.04 16.39 9.55 38.14.55 43.23-17.72 2.17-7.8.74-11.29-7.38-16.31-3.14-1.94-6.31-2.85-4.41-7.92 1.96-5.21 5.01-5.53 9.45-4.08 10.64 3.48 21.35 6.8 32 10.25 3.6 1.17 6.84 2.54 4.64 7.55-6.5 14.8-12.77 29.67-25.07 40.96-18.9 17.34-46.37 21.83-67.27 10.61-4.71-2.53-9.59-5.01-11.96-10.31"/><path fill="#f9e857" d="M1755.97 637.108c-17.94.337-35.76-1.861-53.62-3.021-9.31-.607-9.62-.904-9.54-10.478.07-6.608-3.07-14.875 1.71-19.393 4.32-4.072 11.94.203 18.07.607 26.35 1.767 52.63 4.855 79.12 3.075 4.69-.31 7.24.62 7.63 6.338 1.54 22.157 1.56 22.413-20.54 22.872-7.59.134-15.21 0-22.83 0"/><path fill="#fdfdfd" d="M1516.87 705.586c-15.31 9.049-24.76 22.602-33.93 36.465-4.2 6.338-7.51 14.295-14.09 17.639-7.64 3.87-12.8-6.015-20.04-7.134-9.39-1.443-11.76-7.12-11.23-15.994.49-8.441-.46-16.978-1-25.46-.35-5.381 1.7-7.174 7.06-6.325 7.95 1.268 16 1.915 23.97 3.007 16.57 2.279 32.95 1.282 49.26-2.198"/><path fill="#f5ba2e" d="M1468.46 1483.68c1.53-.74 3.25-2.37 4.59-2.1 13.19 2.56 18.02-4.6 19.79-16.12 1.09-7.14 6.28-13.79 2.4-21.5 16.73.31 30.66 8.48 44.82 15.99 3.63 1.91 5.11 4.85 2.71 8.85-.92 1.52-1.66 3.16-2.56 4.7-3.39 5.77-5.56 13.24-10.53 16.8-5.72 4.09-12.42-2.31-18.68-3.92-14.09-3.64-28.28-3.24-42.54-2.7"/><path fill="#f5cb3e" d="M1840.55 1328.8c16.42 10.39 31.49 19.91 46.92 29.67-4.5 9.64-9.31 18.52-16.37 26.57-11.86-7.86-23.26-15.71-34.96-23.06-5.17-3.25-6.73-6.46-3.13-11.84 3.98-5.98 6.97-12.44 7.54-21.34"/><path fill="#f6df51" d="M1698.96 1527.42c-2.68-.06-3.71-1.2-4.25-3.12-3.49-12.42-7.04-24.84-10.58-37.26-1.05-3.69.56-6 3.84-7.39 5.33-2.25 10.76-4.27 15.99-6.74 3.32-1.55 5.17-.22 6.19 2.56 4.51 12.11 8.84 24.27 13.22 36.41.63 1.75.93 3.89-.7 4.88-7.55 4.74-15.81 8.03-23.71 10.66"/><path fill="#f5ca3d" d="M1825.31 1443.62c-10.83-9.55-18.97-20.26-28.02-30.1-2.6-2.83-2.63-5.21.03-8.11 4.8-5.23 9.33-10.72 14.33-16.53 10.65 9.18 20.71 18.02 30.96 26.62 3.06 2.56 3.64 4.78.91 7.8-5.96 6.59-11.87 13.24-18.21 20.32"/><path fill="#f5ca3e" d="M1868.1 1390.28c-5.4 9.31-10.88 16.73-17.73 24.44-11.18-9.52-21.63-18.46-32.14-27.34-2.88-2.44-2.84-4.82-1.31-8.19 8.23-18.06 8.7-18.28 24.9-7.1 8.41 5.84 16.81 11.65 26.28 18.19"/><path fill="#f6d446" d="M1730.33 1512.6c-4.93-12.91-9.67-25.36-14.69-38.48 8.17-2.84 15.75-5.43 22.39-9.84 4.63-3.09 7.2-1.46 9.43 2.97 3.63 7.2 7.52 14.26 11.37 21.34 2.16 3.95 2.96 7.33-1.94 10.04-8.51 4.69-16.28 10.82-26.56 13.97"/><path fill="#f9e555" d="M1590.95 1525.45c0 5.8-.18 11.59.05 17.38.19 4.79-1.14 7.21-6.55 7.73-20.98 1.94-22.8.16-20.19-20.91.72-5.74.84-11.55 1.18-17.34.75-12.69.74-12.67 12.85-12.19 10.95.45 11.62-1.52 11.77 11.96.05 4.47.01 8.92.01 13.38.3-.01.6-.01.88-.01"/><path fill="#f1bb32" d="M1397.92 1356.33c-1.34-.12-2.7-.1-3.99-.38-6.35-1.35-16.33 2.78-18.48-3.26-2.8-7.88.27-17.6 3.32-25.98 1.85-5.08 6.93-6.69 12.15-6.63 6.92.06 12.84 3.31 14.47 9.77 1.7 6.69 4.52 11 10.87 13.6 2.79 1.14 4.77 4.07 5.71 7.13 1.08 3.48.45 6.31-4.01 6.38-6.68.08-13.37.03-20.06.03.02-.23.02-.45.02-.66"/><path fill="#f3c93e" d="M1798.48 1468.38c-4.78-6.58-8.4-11.64-12.1-16.64-8.8-11.91-8.82-11.9-3.07-23.39-5.1-3.34-6.33 5.91-12.15 2.94l18.7-17.57c10.6 9.55 18.02 21.25 27.56 31 3.14 3.21.99 5.61-1.41 7.81-5.55 5.1-11.18 10.13-17.53 15.85"/><path fill="#f4c93d" d="M1793.49 1470.49c-.57 1.23-.7 2.28-1.31 2.73-7.09 5.41-14.19 10.81-21.41 16.03-2.2 1.59-4.35.56-5.57-1.62-4.82-8.55-9.48-17.19-14.26-25.75-1.68-3.02-.36-5.03 2.08-6.69 3.32-2.27 6.7-4.44 9.98-6.74 10.38-7.29 10.37-7.3 17.91 3.54 3.31 4.76 6.64 9.51 9.93 14.3 1 1.44 1.87 2.95 2.65 4.2"/><path fill="#fafafa" d="M1619.75 558.042c-16.7-10.424-31.98-8.428-48.47-2.791-1.15-7.026-2.36-14.497-3.69-22.548 19.42-2.279 37.91-3.843 57.33-2.346-.77 9.655-5.19 17.625-5.17 27.685"/><path fill="#f4e154" d="M1666.09 1538.58c1.65-4.74 7.28-4.3 9.27-8.69-.71-1.03-1.21-2.26-1.6-2.23-12.38.96-12.38.97-14.47-11.14-.23-1.32-.42-2.66-.67-3.98-4.17-22.18-4.17-22.18 18.83-27.82 3.79 13.58 7.54 27.24 11.42 40.86 1.07 3.75-.05 6.06-3.74 7.19-6.34 1.93-12.69 3.87-19.04 5.81"/><path fill="#f9e555" d="M1388.79 1367.15c-2.21.05-3.61 1.8-3.51 3.38.66 9.31-3.8 15.67-12 21.15-3.5-9.87-.96-19.23.76-28.52.52-2.84 3.35-2.6 5.51-2.51 12.11.48 24.21 1.08 36.32 1.57 3.76.15 5.88 1.67 5.74 5.68-.09 2.69-.34 5.42-.04 8.07.67 6.19-1.7 9.4-8.13 9.21-.88-.02-1.75.37-2.64.48-6.18.79-13.37 4.35-18.32 1.01-4.96-3.35-.75-10.94-1.72-16.58-.23-1.28-.42-2.56-1.97-2.94"/><path fill="#eddb52" d="M1600.21 1541.49c3.66 2.92 7.33 1.66 10.72 2.11 3.36.44 7.02-1.12 10.99 2.12-6.59 4.63-13.79 2.87-20.45 3.47-2.62.25-3.74-1.67-3.87-4.26-.68-12.46-1.36-24.92-2.16-37.38-.31-4.76.94-7.44 6.47-7.66 19.2-.75 16.48-3.8 17.64 14.75.05.89.19 1.8.12 2.69-.46 6.24 4.25 13.28.72 18.3-3.78 5.37-11.86 1.25-17.71 3.28-.69.21-1.13 1.13-2.47 2.58"/><path fill="#f4e356" d="M1639.93 1527.51c-1.85-.21-3.67-.86-5.3-.55-6.87 1.29-8.7-2.52-8.89-8.27-.03-.89-.22-1.78-.32-2.67-2.11-18.2.59-21.13 19.08-22.18 3.65-.22 5.03 1.21 5.55 4.02 1.82 9.65 3.41 19.35 5.14 29.03.58 3.28-.85 5.14-3.95 5.73-7.39 1.42-14.69 3.87-22.82 2.46 2.83-4.53 10.62-.26 11.51-7.57"/><path fill="#f2e155" d="M1389.4 1408.18c1.65-2.08 1.49-4.37 1.28-6.58-.56-5.56 1.76-8.31 7.4-8.85 5.8-.57 11.54-1.6 17.3-2.53 4.52-.73 6.77.99 6.9 5.65.1 3.14.33 6.29.79 9.4.63 4.27-1.22 6.75-5.07 8.25-10.41 4.04-20.8 8.17-32.08 12.62-3.86-8.45-2.96-16.71-3.04-25.07 2.01 2.39.84 6.88 6.52 7.11"/><path fill="#eee" d="M1523.78 1513.91c-11.62-1.53-22.35-6.11-33.4-9.66-14.01-4.5-17.97-2.75-24.01 10.8-.56 1.23-.92 2.54-1.43 3.78-7.88 19-7.88 19 7.32 31.04-9.97 7.43-18.54 5.44-22.51-5.77-6.31-17.79 5.99-44.61 28.41-43.38 12.61.68 24.88.9 36.88 5.12 3.5 1.23 6.44 2.95 8.86 5.68 1.77.87 1.73 1.67-.12 2.39"/><path fill="#efd84f" d="M1380.77 1463.38c-3.36-9.94-5.94-18.13-4.9-29.3 5.1 4.86 2.97 11.28 7.74 13.68 1.9-.27 3.02-1.67 2.89-3.62-.87-12.13-.92-12.15 9.31-16.19 9.12-3.6 18.26-7.16 27.46-10.76 3.63 5.85 3.15 9.95-2.27 14.09-13.1 10.02-25.83 20.57-40.23 32.1"/><path fill="#f4df52" d="M1426.59 1433.31c2.96 4.71 5.65 8.35 1.34 11.89-15.88 13.06-26.82 29.54-33.19 48.93-3.38-1.24-4.14-3.38-5.13-5.39-9.21-18.72-9.24-18.75 6.87-31.62 9.78-7.83 19.66-15.54 30.11-23.81"/><path fill="#f4e255" d="M1523.78 1513.9c.19-.78.25-1.57.12-2.38 8.86.29 17.06-.62 20.95-10.47 2.37-6.02 7.26-3.66 11.5-3.04 5.3.78 4.31 4.92 4.04 8.34-.86 10.74-1.94 21.46-2.9 32.18-.98 10.87-.97 10.87-13.05 9.01-.19-.82-.73-1.76-.54-2.48 4.92-18.47 3.55-21.2-14.14-28.26-2.05-.8-3.98-1.92-5.98-2.9"/><path fill="#f6f6f6" d="M1218.71 437.292c-2.2-5.03.52-9.615.79-14.294.6-10.303 1.11-20.593 1.66-30.896.35-6.661 7.04-12.811 12.7-11.665 6.01 1.214 10.58 7.849 8.47 14.511-3.91 12.366-8.75 24.449-13.36 36.586-1.71 4.463-6.11 4.652-10.26 5.758"/><path fill="#f3f3f3" d="M1414.63 127.801c.87.431 1.75.688 2.42 1.213 9.41 7.391 19.06 14.524 26.85 23.735 1.05 1.241 2.76 2.576 1.63 4.612-1.29 2.333-3.83 2.657-5.78 1.928-12.48-4.693-21.75-13.323-28.4-24.665-1.58-2.683-1.07-6.149 3.28-6.823"/><path fill="#ededed" d="M1314.43 464.804c1.25 5.407-2.48 7.228-6.48 7.902-5.08.863-10.63 2.131-15.01-1.955-3.17-2.954-1.85-5.273 1.87-6.783 6.21-2.509 11.98-5.583 14.57-12.38 9.28 1.51 2.68 9.076 5.05 13.216"/><path fill="#212121" d="M1314.44 464.803c-3.31-.944-2.97-3.722-3.19-6.243-.2-2.441.95-5.246-1.87-6.972 2.02-6.338.69-13.526 4.85-19.338 5.19 1.847 8.04-5.408 13.26-3.439.13 4.895 2.37 10.087-2.02 14.335-8.28 3.803-4.25 12.878-8 18.623-1 1.025-2.02 2.023-3.03 3.034"/><path fill="#dedede" d="M1352.52 436.147c-1.04 4.262-2.28 9.885-3.86 15.414-.47 1.659-2.05 2.913-4.09 2.468-1.98-.432-3.09-1.969-2.88-3.857.58-5.718 1.26-11.449 2.21-17.113.57-3.439 2.98-5.934 6.46-5.124 3.41.809 1.85 4.315 2.16 8.212"/><path fill="#fff" d="M1370.79 405.035c.86 1.753 1.74 3.52 2.6 5.273 1.27 12.784 2.05 25.474-7.13 36.397 2.5-13.795.5-28.036 4.53-41.67"/><path fill="#dca72c" d="M1374.1 1395.97c3.21 11.13 3.87 25.48 2.05 33.43-5.63-8.49-6.62-19.66-2.05-33.43"/><path fill="#f5f5f5" d="M1299.43 422.687c-.35 4.437-.54 7.97-.95 11.49-.23 2.036-.04 4.855-3.33 4.369-2.6-.391-3.41-2.697-3.4-4.989.03-3.534.04-7.121.72-10.56.75-3.883-.66-10.828 5.41-9.844 4.92.809.47 6.878 1.55 9.534"/><path fill="#c29c34" d="M1629.06 1544.84c8.79-5.45 18.62-5.76 28.49-6.04-8.62 5.96-18.31 6.96-28.49 6.04"/><path fill="#e4e4e4" d="M1317.5 461.783c-1.74-9.521 1.2-18.017 5.23-27.146 4.19 2.643 1.87 6.055 2.76 8.523-2.84 6.122-2.33 13.701-7.99 18.623"/><path fill="#f4c93d" d="M1746.25 1449.19c6.78-4.92 13.57-9.86 20.35-14.78.57.83 1.15 1.67 1.71 2.49-5.46 6.85-12.94 10.9-20.51 14.85-.51-.84-1.04-1.7-1.55-2.56"/><path fill="#adadad" d="M1440.97 522.264c-4.69 2.778-7.48 5.3-11.35 3.681-.51-.215-1.05-1.78-.78-2.184 2.9-4.37 6.88-2.455 12.13-1.497"/><path fill="silver" d="M1335.05 467.46c.11-8.63 2.3-11.8 9.2-7.268-1.46 4.234-4.57 5.583-9.2 7.268"/><path fill="#a8a8a8" d="M1260.04 459.733c-.97 1.807-1.5 3.911-3.49 3.776-2.3-.162-1.91-2.238-1.69-3.843.24-1.861 1.19-3.372 3.24-2.643.9.323 1.37 1.861 1.94 2.71"/><path fill="#222" d="M799.459 2523.42c.311-38.35 10.802-68.96 28.83-97.16 18.474-28.88 42.666-51.94 72.224-69.26 5.771-3.38 11.974-6.12 18.217-8.58 4.329-1.7 9.224-1.92 11.975 2.82 2.67 4.6.162 8.67-2.926 12.17-4.545 5.15-10.68 8.1-16.438 11.57-10.383 6.23-21.036 12.05-31.122 18.71-36.153 23.9-56.77 58.25-64.295 100.24-9.83 54.86 7.969 100.32 51.12 134.99 39.038 31.37 85.02 41.21 134.066 38.04 27.99-1.8 54.79-9.15 80.41-20.7 15.23-6.86 16.26-6.91 24.38 7.61 18.77 33.59 67.22 48.28 97.03 38.66 4.25-1.37 8.28-3.42 12.51-4.84 3.87-1.29 7.26-.24 8.96 3.68 1.52 3.54-.58 6.34-3.33 7.9-3.47 1.97-7.32 3.35-11.14 4.59-44.94 14.51-96.64-8.39-114.12-39.38-3.99-7.08-7.92-4.97-13.12-2.79-41.9 17.57-85.358 24.13-130.423 17.48-42.477-6.27-80.045-23.06-110.169-54.38-28.412-29.51-42.382-65-42.639-101.37M2650.24 2879.64c14.26-2.01 28.81-3.72 43.59-1.3 46 7.53 72.7 52.04 57.14 95.92-.75 2.12-1.59 4.21-2.57 6.21-2.19 4.45-5.57 7.04-10.78 6.18-5.77-.96-10.19-3.71-11.05-10.01-.37-2.62-.34-5.42.14-8.01.66-3.49 1.82-6.91 2.98-10.3 11.7-33.89-2.94-57.92-38.72-63.99-16.41-2.78-32.15-.86-47.58 5.07-3.75 1.45-7.58 3.11-11.5 3.55-8 .9-11.73-4.41-8.72-11.83.66-1.64 1.74-3.14 2.69-4.66 43.01-68.31 16.31-158.54-55.12-196.66-51.49-27.48-102.55-25.1-151.72 7.2-3.35 2.21-6.66 4.6-10.26 6.35-2.95 1.44-6.24 1.23-8.6-1.58-2.82-3.34-1.88-6.66.55-9.75 3.09-3.93 7.16-6.75 11.22-9.58 53.22-37.14 126.96-36.19 182.19 2.69 59.76 42.08 85.06 118.97 57.15 187.34-.84 2.03-2.39 3.86-1.03 7.16M1918.04 2730.22c-14.15 15.92-27.92 29.42-43.58 40.88-80.38 58.86-180.66 52.07-253.62-17.22-16.7-15.87-31.08-33.62-43.06-53.31-2.09-3.44-4.44-6.78-4.98-10.95-.43-3.32-.11-6.39 3.26-8.08 3.2-1.6 6.43-.9 8.55 1.67 3.41 4.13 6.46 8.61 9.39 13.1 20.41 31.38 45.9 57.62 78.76 75.95 64.2 35.8 138.19 28.71 197.97-18.61 14.14-11.21 26.72-23.99 38.15-37.95 8.33-10.18 11.62-10.07 18.85.32 29.31 42.19 86.35 51.92 122.22 33.52.41-.21.84-.34 1.24-.52 8.35-3.62 13.15-3.07 15.17 1.76 2 4.76-.78 8.92-8.74 13.09-38.85 20.38-94.89 10.88-128.72-21.9-3.49-3.34-6.62-7.13-10.86-11.75M2667.95 2983.93c-17.77 27.64-39.93 49.66-65.55 68.23-48.4 35.08-102.54 56.89-160.78 68.94-31.32 6.49-62.97 9.55-95.01 8.13-5.86-.25-11.65-.82-17.19-2.83-2.7-.97-4.87-2.86-5.02-5.76-.19-3.85 3.02-5.15 6.03-6.08 5.26-1.62 10.71-.98 16.06-.85 39.31 1.01 77.93-3.6 115.91-13.69 45.92-12.19 88.95-30.76 127.85-58.33 26.25-18.61 49.02-40.62 66.07-68.21 6.13-9.9 9.28-10.62 17.93-3.31 34.3 29.04 74.39 46.42 117.12 58.3 18.6 5.16 37.54 9.2 57.11 5.43 5.15-.98 9.29.73 10.07 6.13.69 4.68-2.78 7.39-7.06 8.43-7.46 1.8-15.03 2.5-22.71 1.94-52.15-3.85-119.78-31.56-160.83-66.47M603.731 2984.12c-65.265.02-138.446-9.3-209.456-32.87-35.1-11.65-68.448-27.04-98.464-48.98-18.636-13.62-35.168-29.38-47.412-49.17-15.534-25.08-21.804-51.97-14.793-81.2.944-3.93 1.834-7.96 4.761-10.98 1.941-2.01 4.463-3.37 7.268-2.29 2.589.99 4.692 2.96 4.692 5.98 0 3.12-.161 6.3-.876 9.32-7.309 30.87 1.551 57.71 20.55 81.87 18.973 24.14 43.663 41.15 70.538 55.24 48.666 25.51 101.013 39.34 154.87 48.11 52.078 8.49 104.533 10.09 157.163 8.07 8.522-.32 17.017-1.23 25.526-1.77 3.129-.2 6.311-.48 9.399-.09 3.951.48 6.607 2.96 6.864 7.08.269 4.16-2.36 6.81-6.041 7.89-2.967.87-6.203.89-9.318 1.22-21.926 2.38-43.947 2.31-75.271 2.57M1703.49 3129c-12.19 6.96-24.5 14.34-38.17 18.74-48.39 15.56-94.89 13.35-137.22-17.23-43.29-31.26-57.26-87.38-34.9-135.85 1.67-3.63 3.72-7.24 6.32-10.22 2.05-2.35 5.2-3.34 8.57-1.51 3.29 1.79 4.28 4.71 3.53 7.93-.81 3.46-2.23 6.81-3.64 10.09-26.73 61.73 8.66 121.99 71.74 136.4 40.59 9.28 78.3 1.17 113.13-21.24 2.27-1.45 4.36-3.18 6.65-4.57 7.65-4.61 10.24-4.02 15.59 3.34 21.12 29.05 52.41 36.11 85.15 19.02 4.75-2.48 9.16-5.65 13.58-8.7 4.52-3.11 9.13-4.83 12.89.46 3.73 5.23.56 9.22-3.61 12.58-36.5 29.44-92.69 27.55-117.02-7.32-.47-.68-1.39-1.05-2.59-1.92M3167.86 2869.83c-78.61-1.93-153.71-19.13-225.12-52.23-9.9-4.59-12.85-8.62-11.07-14.35 1.8-5.81 9.34-8.55 18.63-5.11 9.63 3.57 18.87 8.29 27.97 13.12 81.85 43.35 168.91 51.14 258.94 37.77 18.69-2.78 36.49-9.11 53.09-18.5 8.29-4.69 15.83-10.26 22.14-17.37 9.05-10.17 13.65-22.02 12.75-35.76-.18-2.69-.79-5.34-.89-8.03-.17-4.07-.35-8.64 4.74-9.84 5.85-1.38 8.09 3.18 9.23 7.55 4.26 16.51 1.55 32.1-7.45 46.49-9.33 14.92-22.88 25.01-38.37 32.83-23.99 12.13-49.8 17.65-76.21 20.72-16.03 1.87-32.16 3.25-48.38 2.71"/><path fill="#222" d="M2029.95 2817.19c-2.02-.09-6.56.06-10.99-.58-7.52-1.08-11.57-4.96-11.76-10.75-.24-7.36 4.86-9.98 10.75-11.84 5.72-1.8 11.63-1.4 17.4-.9 45.83 3.91 84.63-11.75 117.87-42.49 23.03-21.31 39.46-46.53 43.52-78.42 4.98-39.13-13.05-73.5-48.57-92.87-7.5-4.1-15.37-7.37-23.51-9.97-2.99-.94-5.97-2.04-8.74-3.45-3.08-1.58-4.48-4.33-3.79-7.86.71-3.65 3.32-5.28 6.69-5.53 2.18-.17 4.5.09 6.63.63 40.85 10.44 85.88 43.61 88.31 102.68.94 22.99-4.97 44.55-16.27 64.51-24.24 42.81-61.39 69.59-107.23 85.06-18.71 6.33-37.87 11.23-60.31 11.78M1980.9 3121.55c-13.99.08-27.86-1.02-41.46-4.21-5.42-1.27-13.55-1.96-12.23-9.55 1.35-7.71 9.35-5.41 14.76-4.71 45.83 6.03 90.46.77 133.92-14.4 55.74-19.46 103.66-50.69 142.73-95.37 14.19-16.25 23.15-35.09 30.51-54.94 2.04-5.49 3.88-10.99 7.82-15.49 3.28-3.76 7.35-5.65 11.94-3.24 4.38 2.32 6.1 6.69 4.93 11.49-.96 3.87-2.6 7.63-4.3 11.27-21.99 47.2-56.03 84.17-97.95 114.19-49.5 35.45-104.48 57.01-165.12 63.57-8.48.91-17.03.94-25.55 1.39M1637.97 3253.69c-30.17.04-50.69-1.74-70.7-7.42-4.27-1.21-8.45-2.98-12.38-5.05-2.99-1.58-4.38-4.71-3.17-8.07 1.01-2.78 3.63-3.91 6.54-3.76 2.67.13 5.4.28 7.99.93 56.77 14.01 112.32 7.09 167.12-10.17 29.64-9.34 57.96-21.54 82.46-41.48 13.32-10.86 25.14-23.01 35.87-36.33 3.94-4.9 7.81-10.01 13.63-12.77 5.15-2.44 10.76-2.95 15.02 1.48 4.06 4.22 2.43 9.54-.08 13.81-2.45 4.21-5.86 7.93-9.23 11.53-28.79 30.71-63.96 51.92-102.45 67.97-44.78 18.68-91.42 28.82-130.62 29.33M155.639 2814.02c2.13-47.09 21.278-84.58 62.11-109.79 4.207-2.61 8.589-5.01 13.579-5.6 3.357-.41 6.257 1.02 7.511 4.36 1.011 2.69.458 5.43-1.726 7.4-1.983 1.78-4.14 3.49-6.487 4.73-53.574 28.62-74.583 94.68-45.941 156.6 10.774 23.28 26.483 42.53 46.589 58.33 16.424 12.91 35.397 19.02 55.866 21.01 6.783.66 13.444 1.42 18.973 5.83 4.032 3.22 7.174 7.28 5.461 12.74-1.78 5.67-6.836 6.75-12.001 6.53-4.018-.16-8.131-.5-11.974-1.59-66.155-18.67-110.061-59.9-127.847-127.17-2.846-10.83-4.275-22.02-4.113-33.38"/><path fill="#232323" d="M1111.55 3123.72c-50.46.08-96.36-14.51-137.803-43.25-7.443-5.17-14.185-11.06-19.067-18.79-2.535-4.02-3.883-8.57-.31-12.46 4.153-4.51 9.183-2.9 13.471-.01 3.317 2.22 6.378 5.02 9.035 8.01 27.714 31.29 63.604 46.09 104.074 50.77 73.65 8.51 139.55-11.06 197.95-56.49 3.55-2.75 7.02-5.62 10.72-8.13 2.73-1.85 5.84-2.62 8.57.2 3.19 3.33 1.96 6.68-.57 9.59-2.05 2.36-4.42 4.49-6.88 6.43-43.71 34.38-92.99 55.5-148.31 62.14-6.25.76-12.49 1.49-18.76 1.93-4.02.29-8.08.06-12.12.06M772.841 2967.92c-4.032 0-8.077.18-12.109-.04-4.868-.27-9.183-2.05-9.251-7.65-.067-5.82 4.868-6.79 9.345-7.72.877-.18 1.78-.19 2.684-.21 38.754-.68 75.014-12.48 110.978-25.3 39.793-14.17 78.075-31.77 114.187-53.8 18.005-10.99 35.735-22.46 49.005-39.45 3.45-4.42 8.12-6.25 12.78-2.24 4.13 3.56 2.93 8.15.04 12.13-5.31 7.32-11.84 13.46-18.85 19.11-32.444 26.12-69.135 44.93-107 61.53-41.977 18.39-85.033 33.67-130.396 41.54-7.052 1.22-14.226 1.78-21.332 2.64a2.6 2.6 0 0 1-.081-.54M1997.79 2294c-10.87-2.69-21.22-5.42-31.93-6.93-51.27-7.27-99.99 1.26-146.52 23.2-14.3 6.75-26.26 17.06-37.69 27.88-5.87 5.54-11.45 11.38-17.42 16.8-2.96 2.68-6.33 4.99-9.79 6.97-4.72 2.7-9.52 2.66-13.49-1.57-3.99-4.28-3.41-9.05-.56-13.61 3.85-6.18 9.35-10.87 14.96-15.32 35.32-28.02 74.76-47.43 118.95-56.88 38.24-8.17 76.47-8.48 114.65.44 4.34 1.01 8.6 2.48 12.83 3.93 5.06 1.71 7.29 5.45 5.59 10.48-1.55 4.61-5.72 5.07-9.58 4.61"/><path fill="#222" d="M1024.98 2365.62c5 .42 10.86.59 16.61 1.5 3.92.62 7.93 1.65 11 4.66 3.72 3.63 6.5 7.68 4.75 13.11-1.7 5.26-5.73 7.89-11.19 8.16-8.11.4-16.12-.26-24.14-1.59-31.784-5.3-59.36 2.82-82.972 25.26-12.284 11.67-18.865 26.04-23.315 41.73-2.319 8.2-3.506 16.71-5.609 24.98-2.67 10.46-8.442 15.88-14.779 14.5-6.163-1.35-10.181-9.01-9.561-18.8.189-3.11.674-6.3 1.699-9.21 20.82-58.6 62.178-92.84 123.237-103.44 4.39-.77 8.95-.56 14.27-.86"/><path fill="#232323" d="M636.809 3062.95c-21.562.05-43.003-1.21-64.079-6.24-4.396-1.05-8.765-2.05-12.244-5.11-2.131-1.88-3.344-4.44-2.441-7.23.877-2.7 2.967-4.64 5.974-4.55 4.005.14 8.118.22 12.001 1.1 39.591 8.95 79.262 6.46 119.028 1.43 30.678-3.89 58.888-14.85 86.234-28.69 5.974-3.02 12.123-5.91 18.487-7.89 8.941-2.78 15.359-.48 17.436 5.19 2.239 6.11-.607 11.17-9.466 15.28-31.473 14.66-64.618 23.99-98.707 30.02-23.868 4.24-47.938 6.73-72.223 6.69M556.885 2782.12c1.255-44.18 16.263-81.82 54.316-106.93 37.029-24.43 76.714-24.46 117.195-9.05 2.076.8 4.166 1.8 5.892 3.16 2.643 2.09 3.843 5 2.697 8.37-1.335 3.95-4.557 5.79-8.374 5.23-3.479-.51-6.782-2.22-10.167-3.38-16.289-5.53-32.943-8.87-50.217-7.3-53.574 4.9-91.492 45.45-94.85 101.33-.566 9.43-.27 18.84.742 28.24.283 2.67.687 5.37.485 8.03-.296 3.81-1.928 7.08-6.257 7.55-4.261.46-6.931-2.32-8.009-5.87-2.886-9.52-3.547-19.39-3.453-29.38"/><path fill="#222" d="M2467 2365.94c27.77 1.8 55.07 12.54 80.34 28.81 31.07 20 56.03 46.09 75.42 77.51 3.22 5.22 8.29 10.66 1.89 16.7-4.38 4.12-9.4 1.45-15.36-8-18.69-29.68-42.42-54.29-71.89-73.5-18.31-11.93-38.22-17.3-59.81-17.3-6.73 0-13.46.25-20.19.33-4.06.05-8.09-.22-11.8-2.15-3.71-1.94-6.82-4.35-6.92-9.07-.09-4.62 2.61-7.66 6.15-9.75 6.02-3.55 12.8-3.85 22.17-3.58"/><path fill="#242424" d="M543.644 2457.71c1.497-58.7 19.863-110.03 65.872-149.07 10.653-9.05 22.357-16.57 35.275-22.06 2.886-1.23 5.853-2.35 8.873-3.12 3.223-.82 6.432-.4 8.172 2.92 1.834 3.48-.135 6.12-2.778 8.06-2.521 1.84-5.34 3.28-8.104 4.76-66.627 35.78-93.718 93.46-92.329 166.87.121 6.73.809 13.46 1.2 20.19.229 4.07-1.348 7.33-5.555 7.93-4.868.69-7.444-2.31-8.186-6.89-1.577-9.78-2.791-19.58-2.44-29.59"/><path fill="#232323" d="M1188.49 3048.68c-10.92.27-21.51-1.43-31.73-5.16a48.2 48.2 0 0 1-9.57-4.75c-2.77-1.78-4.58-4.7-3.46-8.05 1.43-4.25 5.26-4.65 8.93-3.77 6.53 1.56 12.86 3.97 19.43 5.24 26.63 5.13 51.74-.58 75.74-11.93 37.83-17.9 67.94-44.76 90.89-79.72 2.45-3.73 4.9-7.51 7.65-11.03 1.82-2.33 4.57-2.83 7.26-1.55 3.23 1.54 4.7 4.4 3.7 7.77-.88 2.97-2.29 5.85-3.94 8.48-34.91 55.6-83.32 91.8-148.83 103.21-5.27.93-10.7.86-16.07 1.26M2598.37 2847.28c.56 12.46-2.93 25.23-10.98 36.68-2.08 2.95-4.3 5.83-7.68 7.38-3.13 1.43-6.14 1.12-8.68-1.42-2.5-2.49-3.06-5.42-1.55-8.62.57-1.2 1.34-2.34 2.19-3.38 13.83-16.89 13.23-36.08 6.82-54.95-10.53-31.08-31.09-53.08-62.89-63.6-5.66-1.88-11.45-2.05-17.25-2.65-4.68-.48-9.4-1.95-9.29-7.67.11-5.51 4.64-7.24 9.39-7.71 6.78-.68 13.36.4 19.95 2.16 44.09 11.69 79.86 57.38 79.97 103.78M1776.2 2754.15c-4.77-.15-9.3.46-13.63-1.18-3.59-1.36-6.42-3.5-5.98-7.83.44-4.24 3.48-6.02 7.3-6.66 1.75-.3 3.57-.27 5.35-.34 57.95-2.29 100.5-31.1 133.01-77.23 2.32-3.29 4.22-6.93 6.85-9.93 2.61-2.96 6.22-3.57 9.74-1.39 3.05 1.89 3.83 4.99 2.97 8.24-.69 2.55-1.78 5.1-3.21 7.31-32.18 49.74-76.61 80.73-136.01 88.7-2.2.29-4.46.21-6.39.31"/><path fill="#242424" d="M3213.87 2825.07c-9.16.64-19.32-1.22-29.44-3.33-3.03-.64-6.04-1.73-8.81-3.12-3.12-1.55-4.41-4.45-3.62-7.91.81-3.58 3.47-5.33 6.91-5.14 3.54.19 7.07.94 10.57 1.67 22.04 4.58 43.74 3.51 64.95-4.25 9.81-3.59 18.75-8.68 25.87-16.52 10.66-11.74 11.67-24.82 2.96-38.13-1.72-2.63-3.96-4.94-5.46-7.68-1.54-2.8-2.36-6.05.3-8.74 3.15-3.18 6.66-2.15 9.71.15 2.48 1.88 4.82 4.06 6.79 6.46 12.34 15.05 13.37 35.06 2.67 51.37-7.1 10.83-17.08 18.32-28.61 23.83-16.92 8.05-34.82 11.65-54.79 11.34M1190.93 2678.79c-6.04-.17-14.93-1.24-23.05-5.55-3.18-1.7-6.47-4.21-5.02-8.41 1.41-4.1 5.29-4.32 9.06-3.73 4.86.77 9.71 1.86 14.6 2.36 35.73 3.65 66.68-15.4 79.68-49.03 2.1-5.44 3.51-11.17 5.87-16.48 3.33-7.54 9.19-10.9 14.51-9.01s8.01 8.06 6.77 15.95c-.27 1.75-.91 3.47-1.52 5.15-13.74 38.38-56.82 68.63-100.9 68.75"/><path fill="#232323" d="M3330.31 2742.55c-.3 3.29-1.44 5.62-4.13 6.86-2.67 1.23-5.35.94-7.56-.89-1.32-1.09-2.36-2.69-3.14-4.26-14.71-29.19-40.21-46.12-68.33-59.98-16.61-8.2-34.34-12.69-52.67-15.06-5.06-.66-11.6.15-12.24-7.51-.42-4.87 4.23-7.31 13.64-7.26 18.73.12 36.1 5.91 53.01 13.31 24.91 10.91 47.12 25.72 65.13 46.31 6.22 7.11 11.61 14.79 14.93 23.75.59 1.67.98 3.41 1.36 4.73"/><path fill="#242424" d="M1932.3 2309.63c6.51-.23 14.52.52 22.49 2.01 5.38.99 9.63 3.1 9.32 9.34-.24 4.99-5.19 7.77-12.56 6.39-8.46-1.57-16.93-1.8-25.46-1.56-17.28.48-33.77 3.84-48.5 13.65-5.2 3.46-10.64 6.77-16.92 7.93-4.64.85-9.21.36-11.6-4.48-2.24-4.55-.88-8.73 2.37-12.37 4.01-4.5 9.28-7.15 14.77-9.06 20.85-7.3 42.29-11.73 66.09-11.85"/><path fill="#222" d="M2030.44 1802.16c-11.65.39-19.39 5.92-27.2 10.96-21.67 14-40.06 31.83-57.57 50.56-21.21 22.69-39.91 47.4-57.29 73.11-26.66 39.45-53.72 78.61-82.68 116.45-49.96 65.3-108.25 122.37-171.34 174.73-6.21 5.15-12.94 9.69-19.64 14.19-2.94 1.97-6.32 3.48-9.71 4.54-3.11.97-6.28.48-8.11-2.92-1.61-2.97.09-5.25 1.84-7.23 1.78-2 3.93-3.68 6.04-5.33 90.54-70.26 167.56-153.18 232.18-247.77 18.5-27.06 36.88-54.22 56-80.84 23.67-32.96 50.6-63.05 82.08-88.83 11.14-9.13 22.87-17.42 36.03-23.46 5.75-2.65 11.63-4.67 18.11-4.55 12.88.24 19.61 8.71 16.79 21.48-1.67 7.6-5.65 14.14-9.92 20.49-10.07 14.98-22.21 28.21-34.81 41.05-18.25 18.59-36.94 36.75-53.99 56.5-34.52 40.01-57.93 85.31-65.2 138.11-1.76 12.87-2 25.96-3.25 38.93-.98 10.29-4.31 15.13-9.89 15.45-5.82.34-10.53-5.54-11.91-15.67-1.04-7.59-.7-15.24.67-22.81 10.66-59.11 34.58-112.11 72.82-158.53 16.6-20.14 35.03-38.55 53.41-57.04 12.36-12.43 24.61-24.97 34.91-39.22 4.67-6.47 9.77-12.81 11.63-22.35M2324.02 1845.16c.96-39.27 12.05-74.78 24.45-109.97 15.68-44.52 37.42-86.39 56.5-129.41 17.29-38.97 33.59-78.34 43.68-119.93 5.96-24.59 8.51-49.39 4.45-74.71-1.42-8.79-.89-17.9-1.15-26.87-.15-5.07 1.31-9.77 4.09-14 2.74-4.18 6.73-5.76 11.61-5.06 4.35.64 5.42 4.22 6.54 7.65 2.44 7.38 2.6 15.02 2.39 22.66-1.45 50.2-11.09 98.8-28.19 146.03-18.2 50.27-41.91 98.13-63.9 146.75-9.63 21.26-17.41 43.25-25.85 64.97-14.08 36.24-15.47 73.39-10.03 111.26.9 6.29 1.56 12.5-1.34 18.47-3.4 7-9.42 8.25-15.22 3.14-3.89-3.42-5.56-7.98-6.61-12.93-2.06-9.78-1.38-19.66-1.42-28.05M2423.27 2204.02c.86-76.99 20.08-146.6 49.29-213.88 4.11-9.45 8.36-18.85 12.77-28.18 3.26-6.92 7.05-13.56 12.85-18.75 2.79-2.49 6.04-4.19 9.81-2.73 4.4 1.69 5.88 5.81 5.48 9.87-.47 4.82-1.59 9.8-3.53 14.24-3.05 6.96-6.54 13.81-10.66 20.17-46.98 72.8-62.7 153.55-61.08 238.75.27 13.91.81 27.82 3.19 41.57.38 2.22.65 4.47.68 6.69.04 2.56.75 5.8-2.51 6.87-3.92 1.28-5.6-1.97-7.03-4.71-2.5-4.8-3.89-9.99-4.8-15.33-3.22-19.07-4.32-38.31-4.46-54.58"/><path fill="#232323" d="M1917.06 2111.65c.08-15.93-.12-32.99 3.03-49.89 8.69-46.56 34.42-83.19 67.29-115.63 3.85-3.79 8.32-6.95 13.49-8.7 4.84-1.65 10.08-2.36 13.6 2.3 3.4 4.49 2 9.46-.74 13.88-3.1 5.03-7.43 8.98-11.93 12.72-13.88 11.47-26.85 23.8-38.07 37.99-18.07 22.84-28.92 48.19-29.99 77.7-1.06 29.69-.62 59.28 3.67 88.71.96 6.6 3.36 13.01 4.88 19.55.84 3.63 1.05 7.49-3.33 9.08-3.86 1.4-7.08-.34-9.33-3.51-5.09-7.16-6.8-15.56-8.27-23.98-3.44-19.54-3.42-39.35-4.3-60.22"/><path fill="#222" d="M917.854 1474.2c13.174.12 22.964-3.11 32.43-7.37 23.962-10.78 45.012-26.02 64.866-43.01 11.25-9.63 22.33-19.49 34.85-27.51 6.49-4.15 13.35-7.48 20.98-8.74 5.01-.82 10.46-.9 12.48 5.02 1.74 5.07-1.81 8.44-5.68 11.03-3.34 2.24-6.85 4.27-10.37 6.23-26.71 14.89-51.58 32.59-76.618 50.06-14.402 10.04-29.531 18.82-46.306 24.38-12.123 4-24.407 5.64-37.096 2.82-5.825-1.3-11.111-3.6-15.885-7.03-11.26-8.08-13.404-18.65-6.243-30.53 4.234-7.01 10.113-12.65 16.357-17.76 6.58-5.41 13.403-10.57 20.51-15.28 42.597-28.16 79.881-62.38 114.471-99.75 14.99-16.2 28.55-33.54 40.41-52.09 24.99-39.07 59.33-68.2 97.44-93.47 3.36-2.23 6.95-4.16 10.6-5.84 4.5-2.09 9.86-4.59 13.11 1.08 3.41 5.93-1.88 8.64-6.03 11.43-8.56 5.76-17.11 11.53-25.54 17.48-32.25 22.75-58.86 50.73-81.66 83.1-40.2 57.04-90.416 104.33-147.281 144.62-12.082 8.55-24.811 16.26-35.06 27.17-11.084 11.8-8.778 19.24 7.188 22.99 3.452.82 7.093.86 8.077.97"/><path fill="#232323" d="M1092.71 1179.07c-.1 3.31-1.78 6.07-4.07 8.16-15.59 14.18-24.45 33-35.17 50.52-14.79 24.19-31.83 46.62-52.54 66.08-6.861 6.44-13.873 12.75-22.908 16.14-4.396 1.64-8.981 2.32-12.325-1.86-3.425-4.28-1.55-8.66 1.335-12.27 2.481-3.12 5.34-6.23 8.671-8.3 33.857-20.97 56.347-51.93 75.847-85.6 6.09-10.51 12.88-20.47 21.66-28.98 3.59-3.48 7.42-6.5 12.3-7.89 3.6-1.01 6.07.24 7.2 4"/><path fill="#222" d="M1885.79 216.374c-21.56-.432-40.89 5.151-59.87 12.379-18.85 7.188-36.98 16.358-56.62 21.348-42.62 10.815-84.47 10.505-124.74-9.494-19.62-9.75-36.32-23.087-48.89-41.252a88 88 0 0 1-4.32-6.837c-2.68-4.761-3.27-9.656 1.47-13.297 4.93-3.789 9.29-1.389 12.95 2.616 1.2 1.322 2.24 2.819 3.26 4.289 23.61 33.889 57.26 49.289 97.36 51.946 29.59 1.968 58.09-3.21 85.37-15.131 15.21-6.648 30.46-13.216 46.43-17.936 28.15-8.334 56.54-10.559 84.87-1.537 28.17 8.981 47.24 27.578 53.66 56.909 4.97 22.736-2.44 42.182-21.44 55.627-18.78 13.283-39.38 16.938-60.9 5.812-5.69-2.94-10.34-7.12-13.93-12.42-7.86-11.611-7.51-26.256.77-36.397 9.17-11.22 23.61-15.481 36.27-10.721 3.4 1.281 6.6 2.886 8.79 5.92 2.23 3.061 3.55 6.23 1.3 9.925-2.17 3.574-5.5 4.612-9.25 3.817-3.04-.647-5.84-2.374-8.88-2.994-6.35-1.295-11.74.701-14.87 6.5-2.84 5.273-1.66 10.546 2.15 15.009 4.24 5.003 9.88 7.66 16.3 8.618 23.83 3.587 55.82-15.428 43.78-51.555-5.24-15.724-16.27-26.661-31.35-33.377-12.9-5.718-26.51-8.213-39.67-7.767M1532.49 1163.32c-.94 12.71-3.11 25.41-9.56 37.11-10.89 19.77-28.3 32.05-47.83 41.86-4.26 2.15-8.92 2.81-12.11-1.71-3.23-4.58-.75-8.79 2.69-11.91 3.61-3.29 7.72-6.12 11.88-8.72 7.64-4.8 15.09-9.87 20.94-16.76 15.92-18.76 20.28-39.6 9.92-62.51-3.69-8.16-8.25-15.91-12.33-23.91-7.83-15.29-6.84-30.23 1.82-44.88 3.91-6.61 8.5-12.65 13.94-18.06 5.08-5.07 10.21-10.11 15.21-15.25 8.76-8.99 12.96-19.11 8.39-31.81-1.65-4.59-1.94-9.642-2.89-14.484-3.84-19.635 1.89-36.316 15.52-50.584 1.86-1.942 3.58-4.032 5.42-5.987 8.77-9.238 11.49-20.013 8.3-32.311-.45-1.727-1.15-3.412-1.42-5.179-.62-3.951.85-7.255 4.36-9.062 4.24-2.198 7.91-.458 10.68 2.994 3.74 4.693 5.43 10.276 5.98 16.169 1.35 14.16-2.02 27.47-12.32 37.098-18.1 16.925-22.85 36.087-15.94 59.716 4.87 16.65-.01 31.99-12.02 44.72-4.92 5.21-9.96 10.33-15 15.44-5.07 5.13-9.59 10.64-13.14 16.97-4.73 8.49-5.35 16.98-.83 25.69 4.12 7.96 8.32 15.89 12.37 23.89 4.95 9.76 7.38 20.19 7.97 31.47M1662.13 1090.65c-2.99 23.02 11.91 40.16 29.79 55.45 7.47 6.38 16.16 11.33 24.17 17.1 20.67 14.92 36.23 33.81 42.05 59.03 6.07 26.21 1.33 50.11-19.47 68.92-16.22 14.67-41.53 15.67-58.41 2.78-12.87-9.82-17.91-26.24-12.56-40.86 6.45-17.59 27.82-24.5 41.85-13.46 2.09 1.65 4.2 3.59 5.46 5.85 2.32 4.17 2.79 8.65-1.27 12.25-3.59 3.17-7.58 2.83-11.04 0-5.25-4.28-10.32-7.96-15.98-.87-4.56 5.71-3.23 14.68 2.92 20.73 8.62 8.47 24.5 9.29 34.73 1.35 14.01-10.88 19.01-25.95 17.46-42.96-1.61-17.59-9.59-32.55-21.9-45.17-7.9-8.09-17.06-14.52-26.5-20.64-18.39-11.94-33.56-26.89-43.51-46.76-8.52-17-7.45-34.76-4.33-52.67.98-5.68 4.57-8.9 10.45-7.93 5.3.88 7.13 4.95 6.96 9.98-.16 4.93-.47 9.87-.87 17.88M1937.71 729.254c.12-13.257 3.82-25.609 9.52-37.463 5.05-10.559 11.56-20.228 18.08-29.897 5.76-8.564 11.61-17.1 15.87-26.526 8.29-18.354 4.3-35.305-11.17-48.251-2.06-1.726-4.34-3.21-6.31-5.03-3.89-3.628-6.47-7.754-2.63-12.919 3.73-5.003 8.19-4.181 13.08-1.605 19.68 10.397 31.79 33.66 29.25 56.383-.96 8.603-3.54 16.708-7.93 24.098-5.7 9.642-11.69 19.123-17.8 28.522-5.38 8.28-10.85 16.506-14.92 25.514-11.43 25.232-8.09 45.392 11.26 65.27 8.11 8.347 16.95 16.021 25.63 23.788 14.86 13.297 27.4 28.347 36.04 46.471 7.45 15.589 11.87 31.893 12.34 49.209.07 2.238.15 4.49.06 6.729-.21 4.976-2.38 9.183-7.39 9.871-5.95.823-8.84-3.466-9.98-8.765-.66-3.048-.96-6.204-1.19-9.332-2.06-28.589-13.9-52.647-34.18-72.566-10.87-10.68-22.53-20.565-33.39-31.245-11.02-10.843-19.66-23.276-22.75-38.892-.9-4.437-1.71-8.82-1.49-13.364"/><path fill="#222" d="M1513.79 171.508c-10.67 6.406-15.1 16.291-19.97 25.839-1.82 3.573-3.37 7.363-5.66 10.613-2.26 3.182-5.91 4.234-9.63 2.71-3.64-1.497-5.54-4.517-5.23-8.55.17-2.211.4-4.544 1.25-6.567 4.84-11.651 10.51-22.844 19.36-32.082 3.77-3.924 8.01-7.147 13.12-9.183 11.55-4.599 21.09-1.605 25.09 10.06 2.64 7.713 5.81 7.268 11.67 4.895 14.18-5.718 27.46-13.243 41.1-20.026 7.62-3.789 15.39-7.309 23.16-10.802 5.81-2.616 12.01-3.52 18.36-3.493 15.54.068 26.35 9.71 27.86 25.137.39 4.006.47 8.132-.02 12.11-1.45 11.436 4.59 17.788 14.3 21.496 21.71 8.28 43.07 6.783 64.04-2.818 3.66-1.673 7.3-3.493 11.13-4.612 3.73-1.093 7.18.161 9.27 3.654 2.13 3.587.92 6.891-1.49 9.898-2.3 2.873-5.32 4.801-8.54 6.433-25.77 13.027-52.47 14.928-79.54 5.232-20.65-7.39-27.99-19.068-27.77-40.887.03-2.239.24-4.505.07-6.73-.68-8.9-4.26-11.678-13.27-10.235-7.65 1.214-14.5 4.652-21.31 8.064-13.22 6.635-26.37 13.432-39.64 19.999-4.41 2.185-9 4.073-13.63 5.718-18.37 6.5-25.89 3.182-34.08-15.873M1907.51 975.901c.18-18.866 5.11-33.147 13.03-46.471 5.73-9.628 11.85-19.041 17.57-28.67 11.89-20.053 10.3-39.215-4.07-57.475-6.97-8.86-14.92-16.789-23.22-24.301-29.28-26.458-26.28-71.419-12.99-95.773 1.9-3.48 4.53-6.716 7.4-9.467 2.73-2.603 6.26-3.345 9.85-.971 3.61 2.373 4 5.934 3.03 9.507-.81 2.98-2.51 5.718-3.91 8.523-5.57 11.072-7.75 22.858-7.59 35.17.2 15.522 5.37 28.872 16.65 39.823 8.38 8.104 16.89 16.101 24.05 25.393 20.29 26.377 22.06 52.593 5.25 81.304-3.39 5.798-7.24 11.341-10.7 17.099-3.22 5.381-6.65 10.708-9.24 16.385-7.79 17.113-10.29 34.293.38 51.393 3.03 4.87 4.84 10.53-1.28 14.09-5.57 3.24-10.55-.05-14-4.57-7.66-10.046-10.36-21.711-10.21-30.989"/><path fill="#232323" d="M1957.27 399.412c.43 13.405-3.76 25.609-9.72 37.342-3.67 7.228-7.67 14.416-13.32 20.133-15.2 15.414-15.17 32.487-6.65 50.746 3.79 8.118 8.04 16.021 12.03 24.045 15.72 31.664 14.03 62.208-5.67 91.755-9.53 14.294-21.07 26.741-33.44 38.528-.97.93-1.95 1.861-3.06 2.616-3.13 2.144-6.58 3.506-9.94.917-3.71-2.873-3.67-6.783-2.14-10.964 1.6-4.436 5-7.363 8.2-10.491 10.95-10.681 20.84-22.198 28.8-35.359 12.28-20.363 13.5-41.455 4.21-63.085-4.41-10.276-9.87-20.107-14.62-30.262-11.03-23.599-9.83-45.999 6.82-66.847 3.36-4.194 6.35-8.685 9.25-13.229 4.12-6.446 7.43-13.31 9.5-20.7 3.88-13.917 2.98-27.497-3.08-40.673-1.31-2.845-2.87-5.596-3.99-8.522-1.66-4.289-.69-8.132 3.4-10.438 3.56-2.009 7.1-.985 9.71 1.996 2.33 2.683 4.51 5.596 6.21 8.711 5.78 10.519 7.73 21.928 7.5 33.781"/><path fill="#222" d="M1914.73 1122.41c-10.12-.31-22.49-4.91-33.31-13.68-21.24-17.19-30.69-40.25-33.02-66.79-2.08-23.72-2.04-47.522-2.52-71.31-.19-9.049-1.34-17.895-4.95-26.283-5.03-11.665-12.4-13.432-21.77-5.138-1.99 1.766-3.56 4.019-5.49 5.88-2.88 2.791-6.25 3.452-9.81 1.429s-4.63-5.354-3.97-9.224c.3-1.74.73-3.574 1.63-5.057 6.27-10.411 15.82-15.792 27.67-16.628 11.47-.809 19.73 4.882 25.33 14.605 7.13 12.393 9.45 26.108 9.88 40.092.56 17.936.39 35.914.64 53.864.16 11.7 1.47 23.27 4.5 34.61 3.57 13.4 10.55 24.75 21.01 33.76 12.49 10.75 26.44 14.72 42.38 8.04 2.86-1.2 5.89-2.26 8.94-2.65 4.17-.52 8.21.16 9.85 4.97 1.56 4.55-.57 8.23-4.05 10.46-8.82 5.61-18.42 9.24-32.94 9.05M1731.3 1070.93c.51-32.81 13.49-69.19 32.36-103.848.22-.391.43-.782.67-1.16 5.17-7.794 10.1-10.1 15.09-7.066 5.03 3.061 5.36 7.916.62 16.601-14.9 27.393-26.16 56.033-29.33 87.293-4.35 43.1 6.87 81.63 34.77 115.04 2.59 3.09 5.43 6 7.75 9.28 2.77 3.91 4.06 8.44.04 12.19-3.91 3.66-8.52 2.43-12.28-.46-3.51-2.71-6.74-5.9-9.63-9.28-27.46-32.02-39.9-69.47-40.06-118.59M1383.88 853.089c-.03-14.402-4.15-27.079-10.48-39.135-6.05-11.557-13.51-22.21-21.51-32.459-16-20.511-16.81-42.682-7.59-65.984 1.47-3.695 3.56-7.256 5.94-10.465 3-4.1 7.41-5.138 11.96-2.846 4.95 2.495 5.09 6.959 3.42 11.584-.75 2.091-2.06 3.965-2.98 6.015-8.13 18.138-8.25 35.305 4.8 51.73 10.6 13.337 20.01 27.537 26.86 43.288 7.38 16.938 9.46 34.523 6.38 52.634-2.68 15.819-11.53 27.039-26.58 32.851-11.74 4.531-24.89 1.739-32.3-6.527-3.01-3.358-5.48-7.067-5.64-11.881-.14-4.396 1.13-8.199 5.37-9.885 4.16-1.658 8.25-.661 10.42 3.493 2.7 5.178 5.92 9.049 12.38 8.118 7.21-1.038 12.23-5.259 15.53-11.543 3.22-6.123 3.67-12.865 4.02-18.988"/><path fill="#232323" d="M1831.22 251.518c5.57-.351 10.56 5.084 8.18 10.923-9.69 23.937 1.77 38.205 20.81 50.166 11 6.918 21.2 15.104 31.77 22.71 6.96 5.003 13.01 10.95 18.78 17.288 22.9 25.123 18.57 61.332 5.28 81.479-5.74 8.685-12.67 16.331-20.3 23.316-3.88 3.561-8.83 5.759-13.15 1.214-4.26-4.504-1.86-9.102 1.84-13.027 4-4.248 8.14-8.374 11.97-12.77 17.71-20.323 20.53-52.311-2.91-75.398-12.31-12.137-27.46-20.187-40.98-30.531-6.42-4.908-13.4-9.156-19.3-14.618-13.97-12.959-18.57-35.345-11.3-52.121 1.82-4.181 3.89-8.253 9.31-8.631M1643.24 874.438c.06-.324-.11 1.025-.35 2.333-3.23 17.032 3.27 29.789 17.3 39.108 10.08 6.688 20.66 12.662 30.4 19.81 14.68 10.761 22.3 25.582 21.71 43.962-.42 13.216-4.24 25.539-11.45 36.789-8.46 13.16-20.54 22.39-33.2 30.98-4.03 2.73-8.68 3.79-12.16-.38-3.73-4.44-2.59-9.51 1.29-13.31 4.14-4.06 8.9-7.5 13.47-11.11 12.03-9.54 20.04-21.41 23.05-36.738 2.78-14.201-1.2-25.65-12.07-34.86-6.89-5.826-14.93-9.899-22.64-14.457-7.35-4.342-14.51-8.914-20.4-15.238-10.33-11.112-14.84-24.315-14.24-39.351.17-4.517 1.14-8.9 3.1-13 2.25-4.733 5.28-8.914 11.23-7.228 5.37 1.524 5.61 6.325 4.96 12.69M1342.73 1007.71c-31.54-.27-54.71-21.236-57.85-52.481-.27-2.657-.38-5.422.08-8.024.67-3.83 3.19-6.622 7.05-7.242 4.52-.728 8.02 1.483 9.52 5.745 1.17 3.344 1.44 6.999 2.14 10.505 4.6 22.979 21.43 35.318 44.85 32.77 18.44-2.01 32.69-11.477 44.56-25.191 6.2-7.175 11.31-15.064 15.52-23.532 1.6-3.223 3.1-6.487 6.04-8.766 5.46-4.221 12.09-1.888 13.19 4.895.4 2.536.23 5.597-.85 7.876-13.57 28.549-32.47 51.555-64.32 60.805-6.53 1.89-13.17 2.7-19.93 2.64M1594 388.785c-31.84-.674-60.39-7.511-87.68-19.688-3.67-1.632-7.28-3.533-9.86-6.81-1.78-2.266-2.33-4.855-1.09-7.512 1.27-2.697 3.71-3.87 6.57-3.816 5.51.081 10.37 2.643 15.34 4.571 25.29 9.845 51.26 15.684 78.59 15.023 12.66-.31 24.93-2.211 36.96-6.028 2.55-.809 5.06-1.834 7.68-2.319 4.42-.823 8.18.66 9.92 4.949 2.02 4.989-.26 8.765-4.69 11.139-2.74 1.47-5.75 2.468-8.69 3.52-14.55 5.178-29.72 6.257-43.05 6.971"/><path fill="#242424" d="M1398.54 692.464c.38 7.822-1.61 17.518-4.22 27.066-2.73 9.925-3.13 19.432 2.29 28.643 1.12 1.888 1.96 4.099 2.27 6.257.48 3.291-.57 6.19-3.62 8.078-3.01 1.861-5.97 1.618-8.88-.095-4.98-2.926-7.21-7.956-9.24-12.919-5.04-12.312-3.35-24.759.17-37.031 2.38-8.28 3.98-16.6 3.47-25.217-.77-13.041-5.49-24.315-14.86-33.701-6.95-6.945-8.01-12.217-4.22-16.047 3.98-4.005 9.92-3.115 16.6 3.155 14.29 13.405 20.36 30.275 20.24 51.811M1973.37 168.19c-.12.755-.19 3.52-1.01 6.028-1.21 3.668-3.91 6.149-7.96 6.122-4.11-.04-6.54-2.764-7.64-6.446-.64-2.103-.69-4.423-.82-6.648-1.64-29.263-18.19-47.752-43.3-60.051-3.21-1.577-6.7-2.575-9.98-4.032-4.15-1.834-6.5-5.097-5.37-9.655 1.3-5.206 5.31-6.864 10.36-6.42 1.33.122 2.71.23 3.96.648 29.75 10.154 59.85 37.678 61.76 75.829.04.903 0 1.807 0 4.625"/><path fill="#252525" d="M1339.54 556.113c.73-11.935 3.05-24.099 10.05-34.982 1.95-3.034 4.04-5.974 7.2-7.808 2.85-1.659 5.91-1.982 8.89-.081 3.08 1.983 3.37 5.017 3.08 8.267-.32 3.722-2.63 6.567-4.27 9.723-8.87 17.018-9.64 34.105-.27 51.231.22.391.47.769.66 1.16 4.3 8.792 3.9 13.957-1.28 16.344-4.63 2.131-9.45-.391-13.86-7.498-6.79-10.896-9.75-22.911-10.2-36.356M1502.22 863.176c-13.5-.162-25.12-3.128-36.07-8.671-3.59-1.807-7.08-3.897-9.44-7.376-2.26-3.331-2.39-6.662-.03-9.98 2.07-2.899 5.07-3.91 8.28-2.966 2.94.863 5.67 2.521 8.46 3.883 19.39 9.427 38.69 9.993 57.91-.539 2.32-1.268 4.78-2.535 7.31-3.169 3.86-.958 7.06.431 9.08 4.005 1.79 3.169.91 6.069-1.11 8.725-4.25 5.583-10.42 8.429-16.62 10.95-9.24 3.79-19.04 4.882-27.77 5.138"/><path fill="#313131" d="M1531.54 736.859c.08 1.983-1.06 3.412-2.47 4.45-10.94 7.984-19.73 17.828-26.5 29.561-1.33 2.306-3.49 4.854-6.35 2.993-2.59-1.672-1.86-4.827-.57-7.268 6.79-12.798 15.77-23.681 28.32-31.192 3.75-2.239 7.5-1.214 7.57 1.456"/><path fill="#3a3a3a" d="M1721.39 790.275c-6.6 2.225-8.42-1.537-10.64-3.965-8.13-8.833-15.89-18.043-27.58-22.561-2.51-.971-5.07-3.021-3.24-6.055 1.54-2.549 4.72-2.576 7.19-1.2 4.25 2.36 8.67 4.679 12.3 7.849 8.37 7.295 15.41 15.805 21.97 25.932"/><path fill="#3d3d3d" d="M1514.83 768.524c-.7-8.119 3.61-15.32 10-16.844 1.46-.35 2.53.108 3.54 1.025 1.59 1.457 1.29 3.034.33 4.693-1.4 2.401-8.88 8.429-13.87 11.126"/></g><defs><clipPath id="a"><path fill="#fff" d="M0 0h3437v3332H0z"/></clipPath></defs></svg>